<?xml version="1.0" standalone="no"?>
<!DOCTYPE svg PUBLIC "-//W3C//DTD SVG 20010904//EN"
 "http://www.w3.org/TR/2001/REC-SVG-20010904/DTD/svg10.dtd">
<svg version="1.0" xmlns="http://www.w3.org/2000/svg"
 width="500.000000pt" height="500.000000pt" viewBox="0 0 500.000000 500.000000"
 preserveAspectRatio="xMidYMid meet">

<g transform="translate(0.000000,500.000000) scale(0.100000,-0.100000)"
fill="#000000" stroke="none">
<path d="M3190 4295 c-7 -8 -22 -15 -34 -16 -11 0 -16 -3 -10 -5 32 -13 -18
-70 -50 -58 -11 4 -13 0 -9 -15 4 -15 13 -21 33 -21 l27 0 -5 -124 c-5 -143 1
-196 25 -196 9 0 24 -7 33 -15 28 -25 49 -8 56 46 10 78 23 79 166 14 133 -60
168 -67 168 -35 0 16 -18 28 -77 55 -113 51 -128 61 -128 87 0 18 14 30 75 59
41 20 75 42 74 48 -2 27 -5 31 -24 31 -10 0 -61 -18 -112 -41 -76 -33 -96 -39
-115 -30 -21 10 -23 17 -23 83 0 114 -8 148 -35 148 -12 0 -28 -7 -35 -15z
m-23 -317 c-2 -13 -4 -3 -4 22 0 25 2 35 4 23 2 -13 2 -33 0 -45z"/>
<path d="M1149 4220 c-1 -44 -1 -87 -1 -95 0 -239 2 -265 22 -265 19 0 20 7
20 160 l0 160 28 0 c19 0 29 5 29 15 0 8 -8 15 -18 15 -25 0 -51 29 -44 50 4
13 -1 22 -15 30 -19 10 -20 8 -21 -70z"/>
<path d="M1065 4268 c-6 -12 -21 -25 -35 -29 -21 -6 -19 -7 13 -8 35 -1 37 1
37 29 0 36 -2 37 -15 8z"/>
<path d="M3635 4263 c-11 -11 -15 -25 -11 -42 3 -14 6 -97 6 -183 -1 -170 6
-201 43 -196 21 3 22 6 18 106 -4 139 19 174 93 141 31 -15 36 -33 36 -146 0
-84 2 -92 20 -98 41 -13 50 10 50 126 0 117 9 139 55 139 24 0 51 32 41 49 -3
5 -21 12 -40 15 -39 7 -54 22 -65 63 -13 48 -56 43 -65 -9 -5 -31 -32 -58 -58
-58 -47 0 -56 8 -51 46 8 57 -35 85 -72 47z"/>
<path d="M670 4237 c0 -23 4 -27 27 -27 22 0 24 2 12 13 -8 6 -20 19 -26 27
-11 12 -13 10 -13 -13z"/>
<path d="M888 4223 c7 -3 16 -2 19 1 4 3 -2 6 -13 5 -11 0 -14 -3 -6 -6z"/>
<path d="M4155 4179 c-66 -8 -115 -34 -115 -60 0 -30 23 -33 77 -9 57 25 132
21 151 -10 17 -27 -1 -37 -93 -49 -133 -18 -220 -79 -199 -137 17 -48 57 -69
132 -68 37 0 85 6 107 14 46 15 85 19 85 8 0 -13 38 -28 54 -22 13 5 16 26 16
125 0 132 -13 183 -52 198 -36 13 -108 18 -163 10z m99 -198 c10 -16 -6 -41
-36 -57 -37 -19 -118 -28 -137 -15 -20 13 -6 55 21 68 29 13 145 16 152 4z"/>
<path d="M918 4163 c12 -2 32 -2 45 0 12 2 2 4 -23 4 -25 0 -35 -2 -22 -4z"/>
<path d="M1036 4163 c12 -2 26 -14 32 -26 10 -21 11 -21 11 6 1 24 -2 27 -31
26 -22 -1 -26 -3 -12 -6z"/>
<path d="M670 4133 c0 -27 0 -27 15 -6 8 12 25 24 38 26 13 3 8 5 -15 6 -35 1
-38 -1 -38 -26z"/>
<path d="M2710 4126 l0 -37 31 18 c25 15 27 19 12 21 -10 2 -24 11 -30 20 -11
13 -13 10 -13 -22z"/>
<path d="M2025 4123 c11 -2 30 -9 42 -15 19 -9 20 -14 11 -26 -7 -8 -21 -18
-33 -22 -15 -7 -8 -9 28 -9 43 -1 47 1 47 23 0 27 -50 57 -92 55 -20 -1 -20
-2 -3 -6z"/>
<path d="M2171 4096 c5 -17 9 -77 9 -133 0 -96 1 -103 20 -103 22 0 26 10 8
28 -8 8 -8 15 1 25 9 11 8 17 -4 27 -23 19 -20 71 5 77 18 5 18 7 3 29 -12 19
-13 30 -5 48 10 22 8 24 -17 28 -27 4 -28 3 -20 -26z"/>
<path d="M2379 4120 c-73 -9 -112 -25 -106 -43 4 -12 15 -12 195 -6 70 3 89 7
77 15 -8 6 -15 16 -15 21 0 22 -41 26 -151 13z"/>
<path d="M3070 4105 c-10 -28 -20 -31 -38 -13 -9 9 -9 2 -1 -27 10 -35 9 -53
-7 -140 l-6 -30 17 23 c18 25 35 29 35 8 0 -8 4 -17 9 -20 4 -3 8 46 7 109 -1
63 -2 115 -4 115 -1 0 -7 -11 -12 -25z"/>
<path d="M1605 4105 c6 -2 26 -6 46 -9 29 -5 38 -12 41 -31 3 -14 -1 -34 -10
-46 -14 -20 -13 -20 7 -7 17 10 20 19 15 48 -9 49 -10 50 -62 49 -26 0 -42 -2
-37 -4z"/>
<path d="M2873 4103 c9 -2 23 -2 30 0 6 3 -1 5 -18 5 -16 0 -22 -2 -12 -5z"/>
<path d="M2945 4075 c16 -15 25 -37 26 -57 1 -18 3 -25 6 -15 9 37 -20 97 -47
97 -5 0 2 -11 15 -25z"/>
<path d="M2637 4077 c-5 -13 -13 -17 -29 -12 -13 3 -18 3 -12 -2 34 -25 45
-104 19 -139 -18 -24 -19 -38 -1 -31 7 3 18 1 24 -5 15 -15 26 93 16 155 -7
38 -11 47 -17 34z"/>
<path d="M1240 3972 c0 -85 6 -107 26 -91 8 6 21 9 29 5 13 -5 13 -2 -1 19
-16 25 -16 65 2 110 7 17 6 18 -8 7 -13 -10 -19 -10 -32 3 -15 15 -16 11 -16
-53z"/>
<path d="M1389 4023 c-13 -16 -12 -17 4 -4 16 13 21 21 13 21 -2 0 -10 -8 -17
-17z"/>
<path d="M1770 3993 c0 -22 3 -67 6 -100 6 -58 7 -60 29 -49 23 10 23 11 4 35
-25 32 -24 72 3 107 13 15 17 24 10 20 -8 -5 -21 -1 -33 10 -18 17 -19 16 -19
-23z"/>
<path d="M2473 4023 c9 -2 23 -2 30 0 6 3 -1 5 -18 5 -16 0 -22 -2 -12 -5z"/>
<path d="M2717 4023 c-4 -3 -6 -18 -6 -32 1 -21 2 -22 6 -6 3 11 10 26 15 33
11 12 -3 18 -15 5z"/>
<path d="M2532 4008 c24 -19 27 -41 9 -62 -15 -18 -15 -18 7 -7 28 15 30 56 3
71 -27 14 -38 13 -19 -2z"/>
<path d="M2045 4000 c-45 -5 -50 -7 -22 -8 28 -2 37 -6 37 -20 0 -10 -5 -23
-12 -30 -19 -19 1 -14 38 9 20 12 34 29 34 40 0 10 -3 18 -7 17 -5 -1 -35 -4
-68 -8z"/>
<path d="M593 3940 c0 -36 2 -50 4 -32 2 17 2 47 0 65 -2 17 -4 3 -4 -33z"/>
<path d="M1352 3988 c-25 -25 -8 -78 26 -78 9 0 6 7 -9 19 -21 16 -22 22 -11
45 13 29 12 32 -6 14z"/>
<path d="M1928 3983 c7 -3 16 -2 19 1 4 3 -2 6 -13 5 -11 0 -14 -3 -6 -6z"/>
<path d="M1873 3963 c-41 -28 -25 -56 37 -67 l35 -6 -35 14 c-19 8 -30 15 -25
15 6 1 4 5 -4 10 -11 7 -9 13 8 30 24 24 16 27 -16 4z"/>
<path d="M1682 3927 l-32 -33 28 1 c23 0 28 -5 33 -35 5 -27 7 -19 8 33 0 37
0 67 -2 67 -2 0 -17 -15 -35 -33z"/>
<path d="M2712 3905 c0 -16 2 -22 5 -12 2 9 2 23 0 30 -3 6 -5 -1 -5 -18z"/>
<path d="M2085 3896 c-24 -20 -26 -24 -10 -22 11 2 26 -1 33 -7 9 -7 12 -2 12
22 0 17 -1 31 -2 31 -2 0 -16 -11 -33 -24z"/>
<path d="M1408 3903 c7 -3 16 -2 19 1 4 3 -2 6 -13 5 -11 0 -14 -3 -6 -6z"/>
<path d="M2373 3903 c9 -2 25 -2 35 0 9 3 1 5 -18 5 -19 0 -27 -2 -17 -5z"/>
<path d="M1671 3779 c-13 -10 -19 -19 -14 -19 13 0 49 27 43 33 -3 3 -16 -3
-29 -14z"/>
<path d="M2350 3732 c-62 -63 -46 -162 30 -182 22 -6 44 -8 49 -5 5 3 11 -1
14 -7 3 -10 9 -11 26 0 11 6 35 12 52 12 79 0 126 73 99 156 -18 52 -67 69
-119 40 -20 -11 -28 -11 -50 0 -40 21 -70 17 -101 -14z m56 -21 c-4 -5 -1 -11
5 -13 18 -6 -21 -77 -42 -75 -15 1 -16 4 -6 16 10 12 9 13 -1 7 -10 -6 -13 -1
-10 20 2 16 8 29 15 29 7 0 18 6 25 13 14 14 22 16 14 3z m178 -7 c20 -19 21
-78 2 -93 -40 -33 -87 -14 -88 37 -2 57 51 92 86 56z"/>
<path d="M2005 3703 c-82 -7 -85 -9 -85 -60 l0 -46 98 7 c53 4 107 10 120 13
24 6 38 40 27 72 -5 18 -14 21 -63 19 -31 -1 -75 -3 -97 -5z"/>
<path d="M2903 3700 c-40 -3 -75 -8 -77 -11 -6 -6 -9 -29 -7 -63 l1 -28 93 6
c50 4 104 9 119 12 30 6 43 33 34 70 -7 27 -19 28 -163 14z"/>
<path d="M2003 3513 c15 -2 39 -2 55 0 15 2 2 4 -28 4 -30 0 -43 -2 -27 -4z"/>
<path d="M1998 3463 c12 -2 30 -2 40 0 9 3 -1 5 -23 4 -22 0 -30 -2 -17 -4z"/>
<path d="M1843 3429 c-104 -40 -151 -130 -102 -193 25 -32 50 -43 134 -62 108
-24 212 -13 320 35 41 18 85 14 85 -8 0 -15 -66 -46 -142 -66 -53 -14 -91 -17
-185 -13 -110 5 -152 14 -245 53 -11 4 -16 1 -15 -11 1 -12 -14 -27 -44 -44
-80 -44 -80 -44 -77 -134 l3 -81 -140 -5 -140 -5 -3 -25 c-2 -14 -8 -29 -13
-35 -5 -5 -9 -15 -9 -22 0 -20 -56 -72 -87 -79 -30 -7 -63 -31 -63 -46 0 -4
-9 -27 -20 -51 -14 -29 -36 -52 -73 -75 -29 -18 -57 -41 -62 -51 -6 -10 -21
-38 -33 -61 -25 -46 -26 -74 -2 -160 17 -61 33 -76 85 -84 55 -7 148 -36 156
-49 3 -5 10 -8 15 -8 5 1 10 -26 12 -59 2 -49 0 -60 -13 -60 -12 0 -15 -15
-15 -89 0 -50 -4 -93 -10 -96 -5 -3 -10 -17 -10 -31 0 -16 -8 -28 -24 -35 -28
-13 -91 -101 -101 -140 -4 -17 0 -37 14 -60 11 -19 29 -53 40 -76 26 -55 48
-79 95 -98 62 -26 123 -83 132 -124 4 -14 22 -50 42 -79 l35 -52 57 1 c63 2
92 -10 115 -45 l15 -23 43 19 c75 35 72 32 69 82 -3 38 -1 46 13 46 15 0 16
-7 11 -45 -6 -36 -4 -45 8 -45 8 0 18 5 21 10 3 6 19 10 34 10 38 0 57 23 36
43 -21 22 -19 27 12 27 21 0 24 -3 15 -12 -17 -17 -15 -24 9 -25 12 -1 23 7
29 20 6 16 9 18 9 5 1 -20 43 -36 49 -19 2 7 12 3 26 -11 12 -13 29 -24 37
-26 7 -2 42 -15 77 -30 58 -25 78 -42 49 -42 -14 0 -20 -23 -20 -83 -1 -28 6
-44 26 -65 23 -23 36 -27 83 -27 47 0 58 4 75 25 19 24 20 25 34 6 8 -11 15
-23 15 -28 0 -4 18 -8 41 -8 49 0 99 -43 99 -85 0 -41 -54 -85 -105 -85 -23 0
-46 5 -53 12 -6 6 -15 8 -19 4 -10 -10 45 -54 77 -61 14 -3 33 -19 42 -35 19
-34 38 -38 61 -12 21 23 29 296 9 327 -12 18 -13 16 -8 -20 3 -22 1 -47 -4
-55 -8 -12 -10 -10 -10 9 0 21 -2 22 -17 10 -15 -13 -16 -11 -10 11 4 14 7 37
7 53 0 24 4 27 35 27 35 0 35 0 36 -47 1 -27 1 -52 0 -57 -1 -5 5 -3 14 4 10
8 23 15 31 16 24 4 43 29 33 45 -14 23 -10 39 10 39 15 0 19 -5 15 -24 -2 -14
0 -28 6 -31 5 -3 10 -1 10 5 0 6 5 8 13 3 6 -4 31 -8 54 -9 41 -1 42 -1 36 27
-5 25 -2 29 16 29 15 0 21 -6 21 -21 0 -11 -4 -17 -10 -14 -5 3 -10 2 -10 -2
0 -22 28 -33 81 -33 32 0 60 -4 64 -9 3 -6 13 -10 23 -10 33 -1 87 -10 121
-20 19 -6 37 -9 40 -6 4 2 8 -9 9 -25 1 -16 -2 -31 -8 -35 -16 -10 -11 -58 10
-92 37 -62 115 -79 162 -36 10 9 33 18 51 19 45 4 77 17 112 48 17 14 36 26
43 26 6 0 12 9 12 20 0 13 -7 20 -19 20 -11 0 -21 -3 -23 -7 -1 -5 -25 -27
-52 -50 -47 -41 -88 -54 -101 -33 -3 6 3 10 13 10 11 0 25 7 32 15 7 8 17 15
22 15 18 0 78 75 78 98 0 13 -4 21 -9 18 -5 -4 -11 19 -13 49 l-3 55 30 -2
c17 -1 36 -6 44 -12 11 -8 13 -8 7 2 -4 6 -2 12 3 12 14 0 14 -10 -1 -65 -15
-55 -28 -59 -23 -8 l5 38 -10 -38 c-9 -33 -7 -41 11 -60 19 -21 21 -21 33 -5
7 10 19 18 27 18 11 0 11 2 -1 11 -12 8 -10 9 10 5 14 -3 38 -6 53 -6 18 0 40
-11 59 -30 25 -26 29 -36 24 -63 -13 -70 -105 -100 -168 -55 l-31 21 17 -26
c40 -60 97 -72 171 -34 40 20 60 47 35 47 -5 0 -10 5 -10 10 0 6 6 10 14 10
14 0 66 -68 66 -87 0 -5 15 -15 33 -21 l32 -11 -33 5 c-25 4 -33 2 -39 -13 -8
-24 -34 -53 -46 -53 -9 0 -7 16 9 55 7 18 6 18 -9 6 -9 -7 -22 -30 -28 -51
-13 -44 5 -89 49 -117 43 -28 53 -45 36 -64 -11 -12 -14 -35 -12 -80 3 -58 5
-64 28 -69 15 -4 50 3 85 15 33 12 72 21 88 20 15 -1 27 1 27 4 0 4 29 5 64 3
40 -2 66 0 71 7 3 6 0 33 -8 59 -9 26 -18 70 -22 97 -3 28 -10 64 -14 80 -5
17 -14 62 -21 101 -11 68 -13 72 -58 106 -26 20 -66 42 -89 48 -23 7 -62 31
-87 54 -49 45 -70 59 -135 93 -25 13 -53 32 -63 43 -10 11 -23 20 -28 20 -5 0
-10 21 -12 47 -3 48 -3 48 -40 48 -20 0 -39 3 -43 7 -9 9 -12 78 -4 78 4 0 6
11 4 25 -1 14 2 28 6 31 5 3 9 13 9 22 0 9 9 28 20 42 l20 25 0 -32 c0 -18 -4
-33 -9 -33 -5 0 -12 -19 -16 -42 -3 -24 -9 -58 -12 -75 -4 -24 -1 -33 9 -33 9
0 15 13 16 38 5 72 20 98 87 148 62 45 73 64 37 64 -11 0 -13 3 -6 10 5 5 8
26 6 45 l-4 35 -18 -32 c-21 -40 -52 -58 -101 -58 -104 0 -123 122 -26 164
l32 14 -52 1 c-57 1 -61 5 -38 35 8 11 15 31 15 45 l0 26 -23 -26 c-28 -34
-73 -48 -113 -38 -52 14 -66 39 -68 118 0 39 3 71 9 71 5 1 11 -4 13 -12 2 -9
0 -8 -7 2 -10 13 -11 13 -10 0 0 -8 4 -24 8 -35 8 -19 8 -19 20 4 7 13 11 46
9 76 -3 53 -3 54 25 53 25 -1 27 -4 27 -45 0 -48 7 -51 59 -25 32 16 52 52 30
52 -6 0 -7 5 -4 10 11 17 24 11 20 -9 -3 -18 -2 -18 45 2 26 12 46 25 43 30
-2 4 0 7 6 7 14 0 79 43 84 56 3 6 -3 40 -12 75 -15 52 -22 65 -40 67 -12 2
-24 9 -27 16 -3 7 -27 23 -54 36 -46 22 -56 22 -147 14 l-98 -9 -3 -47 -3 -48
-50 -1 c-27 -1 -62 -2 -79 -3 -16 0 -30 2 -30 7 0 4 5 7 11 7 8 0 8 5 -1 15
-9 10 -9 15 -1 15 7 0 11 29 11 85 0 72 -3 88 -20 105 -11 11 -25 20 -31 20
-5 0 -7 5 -4 10 3 6 1 10 -4 10 -14 0 -14 47 -1 55 6 4 8 11 5 16 -3 5 1 6 9
3 10 -4 21 8 36 41 12 26 19 52 17 58 -2 7 2 26 10 44 15 38 18 167 3 143 -5
-8 -10 -37 -11 -65 -1 -43 -2 -46 -9 -20 -5 24 -8 27 -14 13 -4 -9 -5 -21 -3
-25 3 -5 2 -15 -4 -23 -6 -11 -9 -7 -9 15 0 17 -8 43 -19 58 l-18 28 -7 -23
c-3 -13 -6 -37 -6 -55 0 -17 -4 -35 -10 -38 -6 -4 -10 12 -10 39 0 45 -19 67
-21 24 0 -13 -4 -32 -9 -43 -6 -13 -8 15 -7 79 l2 99 28 4 c24 3 27 1 27 -27
0 -16 5 -30 10 -30 6 0 10 14 10 30 0 23 4 30 20 30 22 0 37 -53 26 -95 -4
-14 -2 -25 4 -25 6 0 10 26 10 59 0 57 1 59 26 59 l27 0 -6 -79 c-3 -44 -2
-81 3 -84 10 -6 20 46 20 111 l0 54 65 0 c58 0 65 -2 65 -20 0 -23 -10 -26
-28 -8 -9 9 -12 9 -12 -3 0 -7 -11 -19 -25 -26 -21 -9 -25 -9 -25 4 0 8 -4 11
-10 8 -15 -10 -12 -45 5 -52 9 -3 23 2 33 10 9 9 40 17 68 20 27 2 76 16 108
31 32 15 73 30 92 33 19 3 34 10 34 15 0 5 4 7 9 4 5 -3 11 1 14 9 3 7 25 19
49 25 94 24 91 20 83 113 -3 45 -11 86 -16 92 -5 5 -9 19 -9 31 0 18 -7 23
-41 29 -22 4 -43 13 -46 21 -3 8 -17 14 -32 14 -14 1 -37 7 -51 15 -28 16
-224 20 -297 6 -23 -5 -44 -5 -45 0 -5 12 -112 -12 -128 -30 -8 -9 -28 -25
-45 -35 -34 -22 -48 -41 -55 -76 -4 -22 -11 -25 -50 -28 -33 -2 -52 2 -67 15
-12 10 -31 26 -42 35 -24 20 -36 61 -26 85 7 16 8 16 13 -2 2 -11 9 -24 14
-30 7 -7 9 -5 6 5 -7 22 29 70 48 63 13 -5 15 10 13 103 -1 60 -4 125 -8 144
-5 32 -8 34 -21 20 -11 -11 -15 -39 -15 -110 0 -117 -7 -143 -42 -160 -32 -15
-186 -25 -238 -16 -72 14 -104 81 -93 196 4 41 2 49 -14 53 -12 3 -18 15 -19
34 -1 24 -2 23 -11 -12 -5 -22 -7 -93 -4 -157 l5 -118 -23 0 c-28 0 -36 29
-36 125 0 69 -8 104 -20 86 -5 -9 -47 -9 -156 -1 -204 14 -217 17 -260 58
l-36 35 23 13 c35 19 12 16 -48 -7z m-53 -90 c0 -28 -31 -68 -52 -69 -16 0 -7
59 13 84 25 31 39 26 39 -15z m515 -256 c7 -58 7 -58 20 -28 l13 30 11 -28
c15 -38 14 -60 -1 -51 -7 5 -29 7 -50 5 -31 -2 -38 1 -39 16 -1 16 -2 17 -6 1
-2 -10 -8 -18 -13 -18 -5 0 -11 8 -13 18 -3 12 -5 11 -6 -6 -1 -14 -6 -22 -13
-19 -9 3 -12 22 -10 58 2 29 5 55 7 57 10 10 31 -16 30 -37 0 -13 6 -26 13
-29 9 -3 12 4 11 19 -4 40 1 60 11 54 6 -3 10 -1 10 4 0 6 4 11 9 11 5 0 12
-26 16 -57z m132 -22 c-2 -48 -3 -50 -29 -48 -24 2 -28 6 -28 32 0 23 3 27 10
15 5 -8 10 -10 10 -5 0 9 31 54 37 55 0 0 0 -22 0 -49z m57 26 c-3 -8 0 -26 6
-41 11 -31 4 -54 -12 -38 -6 6 -16 8 -22 6 -7 -3 -11 9 -10 33 1 21 6 38 12
38 6 0 14 3 18 8 11 11 14 9 8 -6z m865 1 c-9 -7 -23 -25 -32 -40 -20 -31 -37
-37 -37 -11 0 24 40 63 64 63 17 0 18 -2 5 -12z m51 -4 c0 -2 -7 -4 -15 -4 -8
0 -15 4 -15 10 0 5 7 7 15 4 8 -4 15 -8 15 -10z m-1240 -40 c0 -27 -4 -43 -10
-39 -17 11 -11 85 7 85 2 0 3 -21 3 -46z m-327 -28 c8 5 7 2 -1 -7 -9 -10 -15
-11 -20 -3 -4 7 -16 14 -27 17 -18 4 -18 5 3 6 17 1 22 8 24 29 1 19 2 16 5
-11 3 -25 8 -35 16 -31z m72 20 c1 -15 -3 -30 -7 -32 -4 -3 -8 3 -8 13 -1 17
-1 17 -11 0 -15 -26 -26 -13 -21 27 4 31 6 34 26 27 14 -6 21 -17 21 -35z m55
5 c0 -34 -3 -38 -20 -34 -20 5 -29 33 -11 33 5 0 13 9 16 20 10 31 15 24 15
-19z m70 -2 c0 -33 -3 -40 -17 -37 -28 6 -14 76 15 78 1 0 2 -18 2 -41z m70
30 c0 -5 4 -8 9 -4 13 7 26 -15 14 -24 -5 -3 -12 -14 -16 -23 -8 -23 -48 -18
-57 8 -11 28 -1 47 16 33 11 -9 14 -8 14 5 0 9 5 16 10 16 6 0 10 -5 10 -11z
m460 -32 c0 -4 -6 -5 -12 -1 -9 5 -9 2 1 -9 12 -15 11 -17 -13 -17 -26 0 -32
13 -20 44 5 12 9 13 25 3 10 -6 19 -15 19 -20z m30 14 c0 -5 3 -16 6 -25 4
-11 1 -16 -10 -16 -10 0 -16 9 -16 25 0 14 5 25 10 25 6 0 10 -4 10 -9z m70
-22 c0 -26 -2 -28 -19 -20 -10 6 -21 7 -25 4 -3 -3 -6 5 -6 18 0 19 6 24 25
25 21 2 25 -2 25 -27z m54 -11 c7 -5 4 -8 -6 -8 -12 0 -18 7 -17 23 0 15 2 17
6 7 3 -8 11 -18 17 -22z m-956 -57 c2 -14 0 -21 -7 -17 -15 10 -25 -57 -17
-116 6 -44 5 -50 -9 -44 -9 3 -20 6 -25 6 -5 0 -10 41 -12 90 -3 85 2 110 16
75 3 -8 3 -21 0 -29 -3 -8 -1 -17 4 -20 5 -3 13 15 17 40 7 47 27 56 33 15z
m43 -31 c8 0 14 29 10 52 0 4 13 6 29 5 34 -2 33 0 30 -84 -1 -40 2 -63 9 -63
6 0 11 -7 11 -16 0 -8 -4 -12 -10 -9 -5 3 -10 -3 -10 -15 0 -40 -25 -14 -31
31 -3 28 -8 39 -12 29 -4 -9 -6 -27 -5 -40 3 -21 -2 -26 -24 -28 l-28 -3 0 94
c0 91 12 141 18 78 2 -17 7 -31 13 -31z m156 25 c2 -29 2 -29 -7 -5 -5 17 -8
19 -9 8 -1 -10 -4 -18 -8 -18 -5 0 -7 -36 -5 -81 2 -50 0 -79 -6 -75 -15 9
-32 89 -32 151 l0 56 33 -3 c28 -3 32 -7 34 -33z m72 3 c-2 -33 15 -88 27 -88
3 0 3 27 -1 60 l-7 60 30 0 29 0 7 -97 c7 -103 2 -116 -39 -108 -11 2 -28 4
-37 4 -11 1 -19 10 -19 24 -2 22 -2 22 -6 1 -6 -29 -43 -40 -43 -12 0 13 4 17
13 12 8 -5 8 -2 -2 9 -7 9 -9 17 -4 17 5 0 10 20 10 45 1 32 -2 43 -10 39 -8
-5 -8 -2 1 7 6 7 12 23 12 36 0 17 6 23 21 23 17 0 20 -6 18 -32z m131 -67 c0
-87 -7 -121 -21 -107 -8 9 3 206 12 206 5 0 9 -45 9 -99z m56 62 c2 -80 4 -94
14 -88 11 7 14 -34 4 -59 -3 -9 -14 -16 -24 -16 -16 0 -19 11 -22 93 -4 100
-3 107 15 107 7 0 13 -15 13 -37z m85 25 c0 -10 2 -10 6 0 8 20 23 14 24 -10
1 -22 1 -22 9 2 9 28 11 27 16 -13 2 -22 -1 -27 -12 -23 -7 3 -14 1 -14 -4 0
-6 7 -10 15 -10 11 0 15 -12 15 -51 0 -27 -4 -48 -9 -45 -5 4 -7 -3 -4 -14 4
-14 0 -20 -12 -20 -13 0 -16 6 -12 23 4 12 2 29 -3 37 -7 11 -10 5 -10 -21 0
-31 -4 -37 -25 -41 -13 -3 -27 -3 -30 0 -3 3 -5 40 -5 83 0 52 -4 79 -12 81
-9 3 -8 9 2 21 18 19 60 22 61 5z m162 -8 c3 -12 0 -20 -8 -20 -7 0 -15 -16
-18 -37 -11 -79 -19 -108 -35 -120 -9 -7 -19 -13 -24 -13 -12 0 -10 188 2 195
6 4 7 -1 3 -12 -6 -16 -5 -16 10 -4 9 7 14 17 11 22 -3 5 8 9 24 9 21 0 31 -6
35 -20z m37 -13 c0 -18 4 -37 9 -42 5 -6 11 -26 14 -45 4 -33 4 -33 5 8 1 23
6 42 11 42 10 0 22 -51 20 -89 -1 -22 -3 -21 -9 9 l-7 35 -2 -30 c-1 -29 -16
-55 -32 -55 -4 0 -7 6 -6 13 0 6 -1 23 -3 37 -2 21 -4 19 -9 -10 -5 -27 -11
-36 -30 -38 -23 -4 -24 -2 -18 35 4 21 11 39 16 41 6 2 8 17 4 33 -3 17 0 35
7 44 7 8 10 22 6 30 -3 9 0 15 9 15 10 0 15 -11 15 -33z m60 0 c0 -26 -4 -33
-19 -33 -14 0 -20 9 -23 33 -4 29 -1 33 19 33 19 0 23 -5 23 -33z m30 -22 c0
-32 4 -55 11 -55 6 0 10 10 9 23 -1 12 -2 38 -1 57 l2 35 14 -30 15 -30 -4 28
c-2 18 1 27 10 27 8 0 14 -10 15 -22 2 -68 19 -89 19 -25 0 39 3 47 18 47 16
0 17 -8 14 -67 -5 -75 4 -80 17 -12 l9 44 2 -40 c1 -32 3 -36 10 -20 6 14 8 7
7 -27 -1 -27 -5 -48 -9 -48 -4 0 -8 -5 -8 -11 0 -5 6 -7 13 -3 7 5 6 1 -3 -10
-13 -17 -14 -17 -21 1 -3 10 -4 22 -1 27 3 5 0 6 -6 2 -5 -3 -13 0 -15 6 -4 9
-6 10 -6 1 -1 -6 4 -15 9 -18 21 -13 9 -25 -25 -25 l-35 0 0 67 c0 36 -3 63
-7 59 -5 -4 -8 -35 -8 -69 0 -56 -2 -62 -20 -59 -39 7 -45 21 -45 113 0 53 4
89 10 89 6 0 10 -25 10 -55z m606 30 c-5 -18 -2 -25 8 -25 9 0 13 6 10 14 -3
8 -1 17 5 21 6 3 11 -2 12 -12 0 -16 1 -16 9 2 5 11 9 14 11 8 1 -7 3 -17 4
-23 1 -5 4 -29 5 -52 l3 -43 7 35 c4 19 8 27 9 18 0 -9 10 -20 21 -23 11 -3
20 -11 20 -16 0 -5 9 -9 20 -9 16 0 20 -7 20 -35 0 -24 -5 -35 -15 -35 -20 0
-55 36 -55 57 0 13 -3 14 -12 5 -9 -9 -9 -15 0 -24 7 -7 12 -21 12 -32 0 -14
-3 -17 -10 -10 -6 6 -33 9 -60 6 l-50 -5 0 86 c0 47 3 92 6 101 10 26 27 18
20 -9z m343 13 c-1 -7 -1 -20 0 -28 1 -13 2 -13 11 0 7 10 10 -5 9 -50 0 -45
-3 -59 -9 -45 -7 18 -10 15 -26 -22 -9 -23 -20 -40 -24 -38 -4 2 -8 47 -9 100
l-1 95 25 0 c15 0 25 -5 24 -12z m-398 -8 c3 41 17 -44 18 -109 1 -60 -2 -72
-13 -68 -8 3 -17 1 -19 -6 -9 -25 -17 1 -19 64 -2 38 -7 62 -13 59 -6 -3 -9
-33 -7 -67 3 -62 3 -63 -20 -54 -15 5 -23 16 -22 30 3 91 3 92 34 102 17 6 31
15 31 20 1 5 3 14 4 19 1 6 3 13 4 18 1 4 6 0 11 -8 9 -13 10 -13 11 0z m489
-20 c0 -10 4 -20 8 -22 11 -4 -7 -88 -19 -88 -5 0 -9 11 -9 24 0 19 -4 23 -20
19 -16 -4 -20 0 -20 18 0 12 3 20 6 16 10 -10 34 20 34 43 0 12 5 18 10 15 6
-3 10 -15 10 -25z m-33 -4 c-5 -16 -27 -19 -27 -3 0 7 7 14 15 14 9 0 14 -5
12 -11z m-119 -81 c2 -47 -1 -75 -8 -75 -5 0 -10 7 -10 16 0 8 -4 12 -10 9 -5
-3 -10 1 -10 9 0 10 6 13 18 9 12 -4 10 1 -7 15 -29 27 -30 27 -24 2 3 -11 0
-26 -6 -34 -9 -11 -9 -15 1 -19 7 -2 1 -4 -14 -4 -16 0 -25 4 -22 9 4 6 1 13
-5 17 -6 4 -9 15 -5 25 5 12 10 14 19 6 11 -9 12 -7 8 8 -3 14 1 22 15 26 11
4 27 18 36 31 9 14 17 25 19 25 1 0 3 -34 5 -75z m-1241 33 c-3 -8 -6 -5 -6 6
-1 11 2 17 5 13 3 -3 4 -12 1 -19z m557 -59 c2 -32 -1 -48 -8 -46 -6 2 -12 32
-14 68 -1 50 0 60 9 46 6 -10 12 -41 13 -68z m-834 4 c0 -42 -3 -64 -10 -57
-8 8 -3 124 6 124 2 0 4 -30 4 -67z m-301 -47 c-9 -8 -10 -3 -5 23 3 18 7 43
8 55 1 11 3 1 5 -23 3 -26 -1 -48 -8 -55z m1368 38 c1 -24 -3 -46 -8 -49 -5
-4 -9 -1 -9 5 0 7 -8 9 -20 5 -18 -6 -20 -2 -20 43 0 47 1 48 28 44 24 -3 27
-8 29 -48z m-128 18 c1 9 6 20 12 24 8 5 10 -1 7 -20 -4 -18 -1 -29 8 -33 8
-3 14 -13 14 -22 0 -12 -9 -17 -35 -18 -35 -1 -35 0 -35 42 0 48 12 67 21 33
5 -15 7 -17 8 -6z m-68 -14 c1 -18 3 -25 6 -15 7 27 21 20 15 -8 -4 -23 -32
-37 -32 -16 0 5 -3 23 -6 40 -4 20 -3 31 5 31 6 0 12 -15 12 -32z m759 22 c0
-5 -4 -10 -10 -10 -5 0 -10 5 -10 10 0 6 5 10 10 10 6 0 10 -4 10 -10z m-633
-22 c-3 -8 -6 -5 -6 6 -1 11 2 17 5 13 3 -3 4 -12 1 -19z m-780 -10 c-3 -8 -6
-5 -6 6 -1 11 2 17 5 13 3 -3 4 -12 1 -19z m-552 -28 c3 -5 1 -10 -4 -10 -6 0
-11 5 -11 10 0 6 2 10 4 10 3 0 8 -4 11 -10z m-165 -90 c-7 -22 -10 -43 -7
-47 4 -3 10 8 13 26 4 19 10 28 14 21 4 -7 10 1 13 19 9 41 25 40 21 -1 l-2
-33 14 33 c17 40 25 41 22 3 -1 -16 -6 -27 -10 -25 -4 3 -7 -10 -7 -28 1 -18
3 -25 6 -15 9 36 23 15 23 -37 0 -60 -5 -68 -39 -59 -21 5 -23 10 -18 54 5 37
2 49 -9 53 -13 5 -14 -2 -9 -49 5 -38 4 -55 -4 -55 -6 0 -11 14 -11 32 0 37
-9 33 -12 -5 -1 -15 -8 -27 -16 -27 -9 0 -12 10 -9 33 2 17 2 24 0 15 -2 -10
-9 -18 -14 -18 -5 0 -9 -7 -9 -15 0 -8 -9 -15 -20 -15 -24 0 -27 39 -6 73 18
29 31 101 17 92 -6 -3 -15 -20 -20 -38 -8 -28 -9 -29 -10 -8 -1 28 25 61 47
61 12 0 13 -9 8 -47 -4 -33 -3 -43 4 -33 5 8 10 31 10 51 0 40 9 54 24 39 6
-6 5 -23 -4 -50z m170 50 c0 -6 8 -5 20 2 30 19 40 -3 33 -71 -3 -31 -6 -71
-7 -90 -2 -34 -3 -34 -47 -35 l-44 -1 -8 74 c-5 49 -5 77 2 84 6 6 11 19 11
29 0 11 7 18 20 18 11 0 20 -5 20 -10z m129 -82 c-1 -62 -4 -85 -9 -68 -8 24
-8 23 -9 -7 -1 -29 -5 -33 -27 -33 -25 0 -26 2 -19 33 16 70 23 122 17 132
-15 24 -9 35 19 35 l29 0 -1 -92z m65 70 c3 -13 6 -36 6 -53 1 -24 2 -27 10
-13 7 11 7 26 0 43 -11 30 -6 45 16 45 8 0 14 -10 15 -22 0 -13 3 -17 6 -10
13 32 23 5 23 -64 0 -50 3 -73 11 -69 6 5 8 35 5 85 -5 77 -5 78 20 78 l25 0
-4 -93 c-2 -51 -7 -96 -10 -101 -3 -5 -24 -8 -46 -6 -29 3 -41 9 -42 21 -1 15
-2 15 -6 -1 -5 -20 -25 -28 -52 -21 -19 5 -21 12 -21 88 0 46 -3 90 -6 99 -5
12 0 16 19 16 17 0 26 -7 31 -22z m207 -25 c1 -27 2 -66 3 -88 2 -57 -2 -65
-35 -65 l-29 0 0 98 0 98 30 2 c29 2 30 1 31 -45z m103 25 c7 -22 7 -22 16 -3
6 14 8 5 8 -35 0 -30 -2 -47 -5 -37 -10 38 -19 5 -13 -47 4 -40 3 -56 -6 -56
-7 0 -15 29 -20 73 l-9 72 -3 -72 c-3 -69 -4 -73 -27 -73 -23 0 -24 1 -24 100
l0 100 38 0 c31 0 40 -4 45 -22z m43 0 c-3 -8 -6 -5 -6 6 -1 11 2 17 5 13 3
-3 4 -12 1 -19z m141 -26 c2 -23 7 -42 11 -42 5 0 6 21 3 46 -4 36 -2 46 9 42
9 -3 12 -19 10 -51 -2 -45 -1 -47 23 -47 27 0 31 6 19 37 -6 16 -8 15 -14 -7
-5 -19 -7 -13 -8 23 -1 45 1 48 22 45 19 -3 23 -10 26 -63 l5 -60 5 60 c6 58
7 60 36 63 28 3 30 1 32 -35 1 -26 -1 -33 -7 -23 -13 21 -12 3 1 -22 8 -15 8
-26 -1 -44 -7 -12 -10 -30 -6 -39 3 -9 2 -13 -4 -10 -5 3 -13 29 -17 58 -6 46
-8 49 -13 22 -4 -16 -3 -40 2 -53 14 -41 9 -63 -24 -94 -29 -27 -38 -30 -80
-26 -43 5 -89 29 -86 47 0 3 -1 17 -2 31 -2 18 -4 20 -7 8 -6 -24 -23 -23 -23
2 0 11 -5 20 -11 20 -6 0 -9 -9 -6 -20 4 -16 0 -20 -19 -20 -22 0 -24 4 -24
48 0 29 3 42 9 34 13 -21 19 5 18 67 l-2 52 60 -3 60 -3 3 -43z m320 -17 c-1
-36 -6 -65 -10 -65 -4 0 -7 -16 -6 -35 1 -19 -2 -38 -5 -42 -4 -3 -7 1 -7 10
0 10 -5 17 -11 17 -5 0 -7 -4 -4 -10 3 -5 -1 -10 -9 -10 -21 0 -22 156 -1 164
8 3 15 12 15 21 0 8 9 15 20 15 19 0 20 -6 18 -65z m82 4 c0 -33 -5 -59 -11
-61 -8 -3 -8 -14 -1 -39 9 -35 9 -35 -25 -37 l-34 -3 3 101 3 100 33 -2 32 -2
0 -57z m38 41 c3 -7 1 -10 -4 -7 -11 6 -11 -79 -1 -89 4 -4 6 -21 6 -38 l-1
-31 -8 30 -8 30 -1 -32 c0 -17 4 -33 11 -35 7 -3 6 -7 -5 -11 -15 -6 -17 4
-17 99 0 77 3 105 12 102 6 -2 14 -10 16 -18z m61 0 l10 25 1 -25 c1 -23 2
-23 10 -5 7 16 9 11 9 -22 1 -23 -3 -45 -9 -48 -5 -3 -10 -28 -10 -56 0 -45
-2 -49 -24 -49 -25 0 -44 26 -24 32 11 4 14 55 8 123 -2 21 -5 13 -10 -25 l-7
-55 -1 56 c-2 64 6 80 24 47 l13 -23 10 25z m135 4 c3 -9 5 -55 5 -102 -1 -48
-4 -75 -6 -59 -2 15 -9 27 -14 27 -5 0 -9 7 -9 15 0 8 -3 15 -7 15 -5 0 -8
-19 -8 -41 0 -41 -1 -42 -34 -43 l-34 -1 6 80 c10 119 12 125 57 125 25 0 40
-5 44 -16z m404 -14 c4 -21 2 -22 -12 -7 -19 19 -21 40 -3 35 6 -3 14 -15 15
-28z m42 9 c0 -6 -4 -7 -10 -4 -5 3 -10 11 -10 16 0 6 5 7 10 4 6 -3 10 -11
10 -16z m-859 -43 c0 -20 1 -20 8 -1 6 13 9 -8 10 -57 1 -76 0 -78 -23 -78
-13 0 -27 7 -30 16 -5 14 -4 15 8 5 13 -11 15 -3 11 63 -1 41 -7 81 -11 88 -6
10 -4 10 9 -1 9 -7 17 -23 18 -35z m-1204 -8 c-3 -7 -5 -2 -5 12 0 14 2 19 5
13 2 -7 2 -19 0 -25z m16 -85 c-3 -27 -11 -43 -19 -43 -17 0 -18 23 -2 67 16
44 28 29 21 -24z m-93 -8 c0 -24 -5 -35 -15 -35 -17 0 -20 16 -5 25 6 3 10 15
10 26 0 10 2 19 5 19 3 0 5 -16 5 -35z m1677 -27 c-3 -8 -6 -5 -6 6 -1 11 2
17 5 13 3 -3 4 -12 1 -19z m-1739 -64 c-5 -20 -7 -39 -3 -42 10 -10 25 20 25
51 0 31 7 34 26 10 9 -12 13 -14 14 -5 0 7 5 10 10 7 6 -3 10 -1 10 4 0 15 67
14 76 -1 5 -8 2 -9 -9 -5 -11 4 -17 1 -17 -8 0 -7 -6 -20 -13 -27 -8 -7 -17
-25 -20 -38 -3 -14 -11 -45 -18 -70 l-11 -45 -43 3 -43 4 5 56 c3 42 2 53 -6
42 -8 -12 -11 -5 -11 28 0 23 5 42 10 42 6 0 9 3 9 8 -2 14 1 22 10 22 6 0 5
-15 -1 -36z m204 4 l1 -33 4 33 c3 20 10 32 20 32 11 0 14 -8 11 -30 -3 -19
-1 -29 6 -27 6 2 10 16 8 30 -2 24 0 25 51 26 l54 0 -2 -95 c-1 -52 -5 -98 -9
-101 -3 -4 -6 8 -6 25 0 17 -4 34 -10 37 -6 4 -10 -8 -10 -30 0 -24 -4 -34
-11 -29 -6 3 -9 18 -6 33 3 14 1 35 -3 46 l-9 20 -1 -20 c-1 -11 -1 -35 0 -52
1 -18 -3 -33 -9 -33 -6 0 -11 8 -11 18 -1 15 -2 15 -15 -2 -8 -11 -15 -16 -15
-10 0 5 -4 4 -8 -3 -4 -6 -19 -9 -33 -6 -26 5 -27 5 -24 91 3 110 3 112 15
112 6 0 11 -15 12 -32z m261 -45 c-3 -57 -2 -74 6 -63 6 8 11 36 11 62 0 60 7
78 32 78 38 0 48 -24 48 -114 0 -68 -3 -86 -14 -86 -8 0 -21 -3 -30 -6 -12 -5
-16 1 -17 22 -1 28 -1 29 -8 4 -6 -22 -12 -24 -56 -24 -28 0 -50 4 -50 9 0 6
-3 15 -6 20 -5 8 -5 124 0 168 1 4 21 7 44 7 l44 0 -4 -77z m184 -20 c-1 -54
-5 -101 -10 -104 -4 -3 -20 -4 -35 -1 l-27 4 1 86 c1 48 2 93 3 100 0 7 15 12
35 12 l35 0 -2 -97z m33 65 c0 -18 5 -40 10 -48 7 -11 10 -2 10 33 0 46 1 47
30 47 30 0 30 -1 30 -55 0 -47 -3 -55 -17 -53 -11 2 -18 -4 -20 -17 l-3 -20 9
20 c8 18 10 18 16 4 3 -9 5 -34 3 -55 -3 -36 -4 -37 -20 -20 -10 10 -18 12
-18 6 0 -22 -34 -5 -41 20 -11 40 -10 170 1 170 6 0 10 -15 10 -32z m154 15
c8 -29 11 -167 3 -180 -4 -6 -21 -11 -37 -11 l-30 1 0 104 0 103 29 0 c20 0
31 -6 35 -17z m66 -7 c0 -14 5 -28 10 -31 6 -4 10 7 10 24 0 20 5 31 14 31 16
0 26 -21 26 -57 0 -18 -4 -24 -15 -19 -21 8 -20 -37 1 -69 9 -14 12 -25 6 -25
-6 0 -13 6 -15 13 -3 6 -6 0 -6 -15 -1 -24 -5 -28 -29 -28 -27 0 -28 2 -40 78
-18 113 -17 122 13 122 20 0 25 -5 25 -24z m150 -11 c6 -19 16 -35 21 -35 5 0
9 -7 9 -15 0 -8 7 -15 15 -15 8 0 15 -5 15 -11 0 -6 7 -9 15 -5 23 8 18 -13
-7 -34 -13 -10 -20 -21 -16 -25 4 -4 15 1 25 10 13 14 18 15 22 4 2 -7 -1 -15
-7 -17 -7 -2 -12 -9 -12 -16 0 -7 -12 -11 -27 -10 -42 2 -43 3 -43 25 0 11 -4
17 -10 14 -5 -3 -10 -15 -10 -27 0 -14 -5 -18 -16 -14 -9 3 -24 6 -35 6 -17 0
-19 8 -19 100 l0 100 34 0 c30 0 36 -4 46 -35z m309 -21 c-2 -42 -7 -58 -21
-65 -10 -6 -16 -14 -14 -18 3 -5 -3 -16 -14 -26 -18 -17 -20 -17 -26 -1 -4 11
3 27 21 46 19 20 25 34 20 49 -4 12 -2 21 4 21 6 0 11 11 11 25 0 14 5 25 11
25 6 0 9 -22 8 -56z m75 -5 c4 -34 5 -64 2 -67 -3 -3 -6 9 -6 26 0 18 -4 32
-9 32 -5 0 -7 -9 -4 -19 4 -16 1 -19 -19 -14 -18 4 -20 3 -8 -6 13 -9 13 -11
-2 -11 -15 0 -18 9 -18 60 0 59 0 60 29 60 27 0 29 -2 35 -61z m73 46 c0 -8
-4 -15 -7 -15 -4 0 -11 -36 -14 -81 -4 -44 -10 -79 -12 -76 -3 3 -11 46 -18
96 l-12 91 31 0 c22 0 32 -5 32 -15z m44 0 c12 30 11 -38 -1 -84 -5 -20 -12
-53 -15 -74 -5 -34 -8 -36 -26 -26 -13 7 -18 16 -14 26 3 9 8 44 12 77 3 34
11 70 16 81 l11 20 4 -20 5 -20 8 20z m59 -70 c0 -55 4 -85 11 -85 7 0 10 28
8 85 l-4 85 33 0 c18 0 32 -5 33 -12 0 -10 2 -10 6 0 2 6 13 12 24 12 17 0 19
-8 19 -84 0 -46 -3 -91 -6 -100 -8 -21 -54 -20 -70 2 -12 16 -13 15 -14 -5 0
-19 -5 -22 -35 -20 -19 1 -37 8 -40 16 -3 8 -2 54 1 102 5 65 11 89 20 89 11
0 14 -20 14 -85z m147 63 c-3 -8 -6 -5 -6 6 -1 11 2 17 5 13 3 -3 4 -12 1 -19z
m51 -10 c2 17 8 32 13 32 11 0 6 -171 -6 -190 -3 -5 -12 -10 -20 -10 -20 0
-30 21 -15 30 10 6 10 18 1 53 -6 25 -11 63 -11 84 l1 38 16 -35 17 -35 4 33z
m78 -5 c-5 -12 -10 -13 -17 -6 -8 8 -7 16 2 26 16 17 24 5 15 -20z m-1726 -55
c0 -88 -7 -108 -37 -108 -24 0 -25 2 -18 38 4 20 9 48 12 62 2 14 8 27 14 28
5 2 9 12 9 23 0 10 5 19 10 19 6 0 10 -27 10 -62z m-200 -33 c0 -59 -3 -75
-15 -75 -9 0 -12 6 -9 15 4 8 2 15 -4 15 -5 0 -12 -7 -16 -15 -3 -8 -11 -15
-17 -15 -8 0 -10 15 -6 51 7 58 14 70 27 49 8 -12 10 -10 11 10 1 14 5 6 9
-20 l7 -45 1 53 c3 80 12 62 12 -23z m1340 50 c0 -22 -36 -73 -45 -63 -7 8 8
67 16 62 5 -3 9 2 9 10 0 9 5 16 10 16 6 0 10 -11 10 -25z m561 -28 c-13 -13
-15 1 -4 30 7 17 8 17 11 -1 2 -10 -1 -23 -7 -29z m-621 -57 c0 -28 -3 -40 -9
-32 -7 11 -9 10 -14 -3 -5 -13 -11 -14 -27 -5 -25 13 -30 86 -5 76 8 -3 15 -1
15 4 0 5 9 8 20 7 17 -1 20 -8 20 -47z m313 -31 c-4 -4 -6 13 -3 39 l5 47 3
-39 c2 -21 0 -42 -5 -47z m204 9 c-2 -13 -4 -3 -4 22 0 25 2 35 4 23 2 -13 2
-33 0 -45z m-1898 -85 c-1 -39 -2 -43 -9 -23 -12 36 -12 70 0 70 6 0 10 -21 9
-47z m67 37 c14 12 34 6 34 -11 0 -6 -5 -7 -11 -3 -8 5 -8 1 0 -14 14 -27 15
-74 1 -52 -8 13 -10 12 -10 -2 0 -10 -5 -18 -11 -18 -7 0 -9 11 -6 28 3 15 2
34 -4 42 -6 11 -9 7 -10 -15 l-1 -30 -10 28 c-5 15 -7 35 -3 45 5 12 9 13 12
4 4 -10 8 -10 19 -2z m151 -17 l11 -28 1 28 c1 22 6 27 27 27 21 0 25 -4 19
-17 -12 -32 -14 -92 -4 -99 8 -4 7 -9 -2 -15 -12 -8 -11 -11 1 -19 12 -8 16
-2 21 33 5 38 6 37 7 -20 2 -68 -4 -78 -33 -57 -14 10 -15 14 -4 15 10 0 10 2
2 6 -7 2 -13 11 -13 19 0 8 -5 14 -11 14 -5 0 -8 -4 -5 -9 4 -5 2 -20 -3 -33
-7 -17 -10 -18 -10 -5 -1 9 -5 17 -10 17 -5 0 -12 7 -15 16 -4 12 -2 15 9 10
8 -3 15 -1 15 4 0 6 -4 10 -10 10 -5 0 -10 11 -10 25 0 32 -27 34 -33 3 -3
-18 -5 -17 -6 7 l-1 29 -16 -22 c-24 -35 -34 -26 -34 33 l0 55 48 0 c43 0 49
-3 59 -27z m173 5 c0 -10 -5 -18 -11 -18 -8 0 -8 -4 1 -15 6 -8 8 -20 4 -26
-4 -7 -6 -36 -5 -66 2 -45 -1 -53 -16 -53 -17 0 -19 9 -18 86 0 47 -3 91 -7
97 -8 12 -13 -86 -9 -149 1 -18 -2 -35 -8 -39 -8 -4 -11 27 -11 100 l0 106 40
-3 c31 -1 40 -6 40 -20z m101 -7 c6 -13 8 -58 7 -100 -3 -73 -4 -75 -28 -76
-22 0 -26 6 -30 40 l-5 39 -12 -27 c-7 -15 -13 -35 -13 -44 0 -13 -3 -14 -12
-5 -9 9 -9 22 0 57 7 25 12 68 12 95 l0 51 36 -3 c28 -2 38 -8 45 -27z m78
-32 c0 -34 3 -64 6 -67 3 -3 5 25 5 61 0 65 1 67 25 67 20 0 25 -5 26 -27 l2
-28 4 28 c4 24 9 28 31 25 27 -3 27 -3 30 -98 1 -66 -1 -90 -8 -80 -8 12 -10
11 -10 -8 0 -13 -4 -21 -9 -18 -5 3 -6 26 -3 51 3 30 1 45 -7 45 -6 0 -12 -9
-12 -20 -1 -11 -3 -24 -4 -30 -1 -5 -3 -17 -4 -25 0 -8 -8 -15 -16 -15 -11 0
-16 12 -17 43 l-1 42 -4 -42 c-4 -40 -6 -43 -34 -43 -16 0 -29 6 -30 13 -1 6
-3 39 -5 72 -2 33 -8 61 -14 63 -5 2 -10 8 -10 13 0 6 5 7 10 4 6 -3 10 3 10
14 0 14 6 21 19 21 16 0 19 -8 20 -61z m227 35 c7 -25 -2 -173 -10 -181 -8 -8
-44 21 -40 31 2 6 0 38 -5 71 l-9 60 -1 -77 c0 -45 -5 -78 -11 -78 -6 0 -10
40 -10 100 l0 100 40 0 c34 0 40 -3 46 -26z m55 4 l2 -23 4 23 c5 25 28 30 37
6 8 -21 8 -189 -1 -181 -3 4 -12 2 -19 -4 -20 -16 -27 11 -22 76 3 30 1 55 -4
55 -4 0 -8 -32 -8 -71 0 -45 -4 -68 -10 -64 -6 4 -10 27 -10 53 0 26 -1 56 -2
67 -4 50 3 85 17 85 8 0 16 -10 16 -22z m139 10 c0 -10 2 -10 9 0 5 9 23 12
52 10 l43 -4 0 -57 c1 -31 -2 -57 -6 -57 -3 0 -15 -16 -27 -35 -21 -36 -41
-46 -41 -21 0 7 8 24 18 37 19 24 25 59 11 59 -4 0 -10 -11 -13 -25 -4 -14
-10 -23 -15 -20 -5 2 -12 -7 -15 -21 -7 -25 -8 -25 -25 -10 -17 15 -19 15 -25
1 -3 -9 1 -18 9 -21 22 -9 18 -30 -5 -30 -14 0 -20 7 -20 23 0 32 -18 29 -23
-4 -3 -16 -4 20 -4 80 l1 107 38 0 c24 0 38 -5 38 -12z m180 -30 c-5 -24 -9
-44 -9 -45 -1 -2 -1 -10 -1 -18 0 -12 -4 -13 -25 -3 -22 10 -25 18 -25 60 0
48 0 48 34 48 l33 0 -7 -42z m123 30 c2 -7 0 -21 -5 -30 -5 -12 -5 -18 2 -18
6 0 10 -29 10 -73 0 -60 -3 -74 -15 -74 -13 0 -15 13 -14 66 2 72 -7 131 -22
131 -5 0 -9 -9 -9 -20 0 -11 5 -20 11 -20 8 0 9 -16 5 -52 -4 -29 -7 -63 -8
-75 0 -16 -6 -23 -19 -23 -14 0 -18 6 -15 28 2 15 1 21 -1 15 -2 -7 -8 -13
-13 -13 -14 0 -20 46 -14 109 l7 61 48 0 c29 0 49 -5 52 -12z m91 -10 c-1 -10
2 -18 8 -18 15 0 39 -68 33 -98 -4 -22 -4 -24 4 -7 9 19 10 19 10 -2 1 -12 5
-25 11 -28 6 -4 7 9 4 35 -5 38 6 54 21 30 4 -6 11 -8 16 -5 5 4 9 -15 9 -43
0 -37 -4 -49 -15 -49 -8 0 -15 5 -15 10 0 5 -6 4 -14 -2 -11 -9 -16 -9 -21 0
-6 8 -9 8 -15 0 -12 -20 -40 -1 -40 28 0 15 -4 31 -9 37 -5 5 -11 25 -14 44
-2 19 -4 6 -5 -30 0 -44 2 -59 8 -45 7 17 9 16 9 -10 1 -27 -2 -31 -26 -29
l-28 1 -3 102 -3 102 38 -3 c29 -2 38 -7 37 -20z m282 -77 c-1 -91 -2 -98 -21
-97 -11 1 -32 -1 -47 -5 -22 -6 -27 -3 -30 16 -7 32 2 86 13 79 5 -3 9 4 9 15
0 11 5 23 10 26 6 4 8 10 5 15 -3 5 -1 11 5 15 6 4 10 -5 10 -19 0 -14 5 -26
11 -26 8 0 10 14 6 40 -4 34 -2 40 13 40 15 0 17 -10 16 -99z m34 -8 c0 -79
-3 -104 -11 -96 -8 8 -9 41 -4 107 4 53 9 96 11 96 2 0 4 -48 4 -107z m90 81
c0 -13 5 -24 10 -24 6 0 8 11 4 25 -6 23 -3 25 25 25 34 0 35 -3 31 -82 -1
-30 2 -48 9 -48 7 0 11 23 11 59 0 33 5 63 10 66 6 4 10 -30 10 -93 0 -76 -3
-101 -14 -105 -18 -7 -26 1 -26 25 0 11 -5 16 -10 13 -6 -4 -8 -10 -5 -15 9
-14 -14 -22 -77 -26 l-59 -3 2 86 c3 117 4 121 45 121 29 0 34 -3 34 -24z
m162 4 c-14 -14 -16 -128 -2 -128 6 0 10 12 10 26 0 22 3 24 14 15 12 -10 15
-8 19 11 3 13 4 -4 1 -36 -4 -62 -14 -77 -45 -69 -13 4 -19 14 -19 34 0 16 -4
29 -10 29 -5 0 -10 11 -10 25 0 14 5 25 10 25 6 0 10 15 10 33 0 35 6 47 24
47 6 0 5 -5 -2 -12z m-1435 -110 c-2 -13 -4 -3 -4 22 0 25 2 35 4 23 2 -13 2
-33 0 -45z m623 6 c0 -2 -7 -4 -15 -4 -8 0 -15 4 -15 10 0 5 7 7 15 4 8 -4 15
-8 15 -10z m410 -35 c0 -42 -2 -49 -13 -40 -8 6 -16 9 -19 6 -7 -7 -9 66 -2
76 3 5 12 9 20 9 10 0 14 -13 14 -51z m-1255 -101 c4 -24 5 -70 3 -103 -2 -47
-6 -59 -18 -56 -8 2 -25 3 -37 3 -20 0 -23 5 -22 42 1 22 3 33 6 24 6 -24 23
-23 23 2 0 11 5 20 10 20 6 0 10 5 10 11 0 5 -4 7 -10 4 -5 -3 -10 1 -10 9 0
9 5 16 10 16 6 0 8 10 4 24 -3 14 -3 30 1 35 13 22 24 10 30 -31z m77 -48 c-2
-61 -7 -90 -15 -90 -7 0 -6 -4 3 -10 11 -7 8 -8 -13 -6 -15 1 -30 6 -35 11 -4
4 -2 5 4 2 18 -11 26 22 18 81 -4 36 -9 49 -15 41 -6 -9 -9 -1 -9 24 0 35 2
37 33 37 l32 0 -3 -90z m39 73 c1 -10 1 -24 0 -31 -1 -6 2 -20 8 -29 8 -15 10
-14 16 10 4 15 5 36 2 47 -4 17 0 20 23 20 16 0 32 -5 36 -11 8 -14 -16 -199
-26 -199 -5 0 -11 17 -15 38 -7 45 -35 55 -35 13 0 -21 2 -23 10 -11 8 12 10
11 10 -7 0 -17 -6 -23 -23 -23 -23 0 -23 3 -26 100 -1 65 2 100 8 100 6 0 12
-8 12 -17z m218 -50 c0 -37 5 -71 11 -77 17 -17 11 -53 -10 -59 -16 -4 -20 0
-20 19 0 13 -5 24 -11 24 -6 0 -9 -9 -6 -20 3 -12 0 -20 -7 -20 -10 0 -12 21
-10 83 3 99 5 105 14 47 l7 -45 1 48 c2 41 -1 47 -18 47 -23 0 -21 6 -26 -89
-3 -82 -9 -105 -24 -96 -10 6 -13 182 -3 198 2 4 26 7 52 7 l49 0 1 -67z m59
33 c-2 -19 0 -32 4 -30 4 3 8 -27 8 -66 0 -61 -2 -71 -17 -68 -14 2 -17 19
-21 101 -4 86 -2 97 13 97 14 0 16 -7 13 -34z m53 17 c0 -10 3 -55 5 -99 5
-74 3 -82 -14 -86 -18 -5 -19 1 -18 98 1 76 4 104 14 104 6 0 12 -8 13 -17z
m63 0 c12 -42 18 -115 12 -148 -5 -26 -12 -35 -26 -35 -11 0 -20 6 -21 13 -9
193 -9 187 11 187 10 0 21 -8 24 -17z m76 0 c0 -14 2 -15 9 -4 5 8 8 -15 6
-58 -2 -68 -22 -121 -45 -121 -18 0 -10 33 13 58 l22 24 -25 -7 c-25 -6 -25
-5 -27 60 -3 63 -2 65 22 65 17 0 25 -6 25 -17z m100 6 c0 -5 -4 -7 -10 -4 -6
4 -10 -7 -10 -25 0 -28 2 -30 20 -20 17 9 20 8 19 -12 -1 -27 -17 -79 -18 -60
-1 6 -8 12 -16 12 -7 0 -19 8 -24 18 -10 16 -10 16 -11 0 0 -9 8 -22 18 -27
16 -10 16 -10 0 -11 -10 0 -18 5 -18 11 0 5 -4 8 -8 5 -5 -3 -9 23 -10 57 -1
44 1 56 8 42 8 -19 9 -19 9 3 1 17 7 22 26 22 14 0 25 -5 25 -11z m256 -11
c-17 -25 -22 -73 -6 -63 5 3 14 24 20 45 8 29 16 40 30 40 18 0 20 -7 20 -84
0 -46 -3 -91 -6 -100 -9 -23 -39 -20 -41 3 -1 13 3 18 12 15 10 -4 12 0 8 15
-7 29 -33 14 -33 -20 0 -25 -4 -29 -27 -30 -16 -1 -32 0 -38 1 -5 2 -21 2 -34
1 -21 -1 -23 2 -17 31 4 19 21 46 40 63 18 16 39 47 45 68 7 20 19 37 27 37
13 0 13 -3 0 -22z m262 -3 c3 -17 1 -18 -8 -5 -9 12 -10 7 -6 -20 17 -102 18
-120 7 -120 -6 0 -11 -5 -11 -11 0 -5 6 -7 13 -3 9 6 9 5 0 -8 -10 -12 -29
-14 -85 -11 -98 6 -98 6 -98 54 0 36 2 40 15 29 12 -10 15 -9 15 8 0 11 6 22
13 25 9 3 9 8 -2 21 -14 17 -16 17 -28 0 -12 -16 -13 -16 -13 8 0 56 5 59 99
56 77 -3 86 -5 89 -23z m80 -24 c12 -26 22 -53 22 -59 0 -7 4 -12 9 -12 5 0
12 -8 14 -17 3 -10 5 -3 6 15 1 20 -3 31 -9 27 -5 -3 -10 0 -10 9 0 8 -4 16
-10 18 -5 2 -12 18 -16 36 -6 28 -4 32 15 32 17 0 21 -6 21 -35 0 -19 5 -35
10 -35 6 0 10 -10 10 -22 0 -13 7 -32 15 -42 8 -11 15 -30 15 -43 0 -19 -5
-22 -34 -21 -31 1 -34 4 -40 37 -3 20 -17 59 -31 86 -13 28 -25 56 -25 63 0
25 16 10 38 -37z m117 30 c8 -26 2 -181 -7 -181 -5 0 -8 9 -8 21 0 12 -6 35
-13 52 -18 41 -37 101 -37 114 0 19 59 13 65 -6z m151 -16 c1 -19 2 -51 3 -70
0 -19 5 -35 10 -35 6 0 7 30 4 70 -5 60 -3 70 11 70 18 0 18 0 22 -47 1 -18
-2 -33 -7 -33 -5 0 -9 -5 -9 -11 0 -5 5 -7 10 -4 6 3 10 -4 10 -17 0 -18 -2
-20 -10 -8 -8 12 -10 11 -10 -7 0 -13 4 -23 9 -23 10 0 9 -46 -1 -55 -3 -3 -9
9 -13 27 l-8 33 -4 -27 c-3 -20 -10 -28 -24 -28 -16 0 -19 8 -21 53 l-1 52 -6
-55 c-7 -62 -21 -47 -21 23 0 38 -1 40 -16 25 -12 -12 -14 -20 -5 -36 14 -26
14 -52 1 -52 -5 0 -10 7 -10 15 0 8 -5 15 -11 15 -6 0 -8 -7 -5 -16 9 -23 -3
-37 -20 -23 -10 8 -14 37 -14 105 l0 94 68 0 67 0 1 -35z m132 -65 c-3 -87 -5
-100 -20 -100 -15 0 -18 9 -18 59 0 33 -5 63 -11 67 -6 3 -9 15 -6 25 3 10 0
20 -7 23 -16 7 14 26 42 26 24 0 24 -1 20 -100z m-448 63 c0 -8 9 -26 20 -40
11 -14 20 -36 20 -49 0 -13 4 -24 9 -24 4 0 6 -11 3 -25 -2 -14 -11 -25 -18
-25 -14 0 -17 10 -15 47 1 11 -3 24 -10 29 -9 5 -11 -4 -6 -35 3 -28 2 -41 -6
-38 -6 2 -12 40 -13 95 -2 55 1 90 7 87 5 -4 9 -13 9 -22z m501 -23 c5 0 9
-15 9 -34 0 -34 -21 -66 -43 -66 -8 0 -8 3 1 9 8 4 13 21 11 37 -3 42 2 93 8
72 2 -10 9 -18 14 -18z m314 -14 c10 4 15 0 15 -12 1 -16 3 -15 14 5 13 23 14
22 21 -25 10 -63 11 -94 2 -94 -4 0 -11 0 -17 0 -5 0 -10 12 -10 26 0 14 -4
23 -10 19 -5 -3 -10 -16 -10 -28 0 -18 -2 -19 -10 -7 -9 13 -11 13 -20 0 -7
-11 -10 8 -8 63 1 47 5 72 10 63 5 -8 15 -13 23 -10z m-1307 -36 c12 0 13 -3
4 -12 -7 -7 -13 -26 -13 -42 -1 -22 -3 -25 -6 -11 -3 11 -10 23 -15 26 -6 4
-7 20 -2 40 5 22 9 28 12 17 2 -10 11 -18 20 -18z m1418 -32 c3 -45 1 -54 -14
-55 -13 -1 -18 8 -20 44 -1 28 1 42 8 38 6 -3 10 4 10 16 0 43 12 10 16 -43z
m-160 -28 c-3 -14 -5 -28 -5 -31 -1 -3 -15 -4 -32 -1 -21 3 -29 9 -25 19 3 8
6 27 7 41 1 23 3 21 13 -13 12 -36 13 -37 19 -15 4 14 7 39 8 55 l1 30 9 -30
c5 -16 7 -41 5 -55z m-1196 1 c0 -21 -5 -31 -15 -31 -8 0 -15 6 -15 13 0 8 -4
7 -10 -3 -11 -16 -13 -8 -10 29 5 59 50 52 50 -8z m1000 44 c0 -3 -5 -11 -10
-18 -6 -7 -19 -23 -29 -37 -11 -14 -22 -22 -26 -18 -9 9 3 44 21 63 15 14 44
21 44 10z m40 -5 c8 -5 11 -10 5 -10 -5 0 -17 5 -25 10 -8 5 -10 10 -5 10 6 0
17 -5 25 -10z m74 -26 c3 -8 2 -12 -4 -9 -6 3 -10 10 -10 16 0 14 7 11 14 -7z
m-1960 -101 c3 -21 6 -59 6 -85 0 -26 5 -50 10 -53 13 -8 13 115 0 149 -8 23
-7 26 10 26 19 0 20 -7 20 -98 0 -54 -3 -101 -6 -104 -11 -12 -44 5 -44 23 0
10 -4 21 -10 24 -6 4 -10 -5 -10 -19 0 -19 -5 -26 -20 -26 -18 0 -20 6 -19 58
1 44 3 50 8 27 l7 -30 7 34 c4 18 7 48 7 66 0 57 24 63 34 8z m116 10 c0 -16
3 -61 5 -100 4 -68 3 -73 -15 -73 -14 0 -20 7 -20 23 -1 32 -10 139 -15 160
-2 12 3 17 21 17 19 0 24 -5 24 -27z m72 -20 l2 -48 3 48 c3 33 8 47 19 47 8
0 14 -10 15 -22 0 -22 1 -22 9 -3 6 13 8 -9 8 -65 0 -54 -3 -76 -7 -60 -5 14
-6 40 -3 58 3 20 0 32 -7 32 -20 0 -18 -109 2 -122 19 -13 -13 -28 -43 -21
-30 7 -43 25 -27 35 9 6 7 11 -5 19 -13 7 -18 21 -17 47 l2 37 7 -35 c5 -25 9
-31 14 -19 4 8 2 28 -4 43 -17 45 -13 76 10 76 17 0 20 -7 22 -47z m103 -50
c0 -92 -7 -119 -28 -106 -8 5 -8 178 1 196 2 4 9 7 15 7 8 0 12 -29 12 -97z
m112 57 c1 -19 4 -65 8 -102 6 -65 6 -68 -15 -68 -21 0 -22 4 -19 69 2 39 0
73 -4 77 -4 4 -7 -8 -7 -27 0 -69 -12 -109 -31 -109 -14 0 -19 11 -24 53 -4
28 -5 72 -3 97 l5 45 1 -52 c1 -28 7 -55 13 -58 7 -5 10 10 9 46 -1 30 -1 58
-1 62 1 5 16 7 33 5 30 -3 33 -6 35 -38z m43 -36 c0 -51 -3 -73 -11 -69 -6 4
-8 13 -5 20 2 7 0 30 -4 51 -10 41 -5 74 11 74 5 0 9 -34 9 -76z m44 64 c5
-10 7 -10 12 0 13 28 25 10 19 -28 -4 -24 -3 -40 3 -40 12 0 24 58 15 73 -3 6
-1 7 5 3 7 -4 12 -19 12 -34 0 -29 32 -86 43 -76 3 4 2 -10 -4 -29 -5 -20 -8
-39 -7 -44 3 -8 -5 -13 -22 -13 -5 0 -10 20 -10 44 0 25 -4 48 -10 51 -6 3 -7
-13 -4 -44 2 -28 0 -52 -6 -56 -6 -4 -10 9 -10 33 0 44 -17 102 -31 102 -5 0
-9 -9 -9 -20 0 -11 5 -20 10 -20 6 0 10 -23 10 -51 0 -31 -4 -48 -10 -44 -6 4
-8 11 -5 16 4 5 1 9 -4 9 -6 0 -11 -7 -11 -16 0 -8 -4 -12 -10 -9 -6 3 -10 50
-10 106 0 79 3 99 14 99 8 0 17 -6 20 -12z m352 -93 c2 -95 1 -98 -11 -60
l-13 40 -1 -38 c-1 -31 -4 -38 -18 -35 -11 2 -21 16 -25 38 l-7 35 3 -37 c1
-21 -2 -38 -6 -38 -4 0 -8 5 -8 12 0 6 -6 4 -13 -7 -15 -20 -21 -15 -31 28 -5
23 0 33 29 63 24 24 35 30 33 19 -2 -10 3 -20 10 -22 9 -3 12 11 12 52 0 53 1
56 23 53 21 -3 22 -7 23 -103z m33 83 c1 12 6 22 12 22 7 0 10 -12 7 -32 -3
-18 -1 -46 3 -63 5 -23 7 -15 8 33 1 55 3 62 21 62 15 0 20 -7 21 -27 l2 -28
4 28 c3 17 10 27 22 27 14 0 16 -7 13 -37 -2 -29 -1 -34 7 -23 6 8 11 25 11
38 0 17 5 23 18 20 15 -3 17 -16 18 -101 0 -74 -2 -97 -13 -97 -21 0 -28 4
-27 17 1 7 -2 10 -7 8 -4 -3 -10 16 -12 42 -3 47 -3 47 -5 -10 l-2 -58 -32 3
c-21 2 -32 9 -34 21 -1 11 -6 22 -9 25 -4 4 -6 0 -5 -8 5 -30 0 -40 -20 -40
-19 0 -20 6 -19 103 1 66 4 93 9 77 8 -24 8 -24 9 -2z m266 12 c-3 -5 -1 -10
6 -10 16 0 69 -60 70 -79 0 -11 2 -12 6 -3 8 20 23 3 23 -28 0 -27 -2 -28 -36
-24 -30 4 -35 2 -32 -13 2 -12 13 -18 30 -18 15 -1 30 -4 34 -8 4 -4 -25 -7
-64 -7 -57 0 -72 3 -72 15 0 18 17 20 22 4 3 -8 10 -6 21 5 19 20 10 54 -19
71 -54 30 -74 48 -74 69 0 12 3 26 7 29 11 11 85 8 78 -3z m105 -27 l-1 -38
-24 28 c-13 15 -26 27 -27 25 -2 -1 -12 3 -23 10 -17 10 -13 11 28 12 l47 0 0
-37z m45 27 c3 -5 1 -10 -4 -10 -6 0 -11 -9 -11 -20 0 -11 -4 -20 -10 -20 -11
0 -14 43 -3 53 9 10 21 9 28 -3z m27 -25 c-3 -28 -1 -35 13 -35 14 0 15 3 5
15 -9 11 -10 18 -1 28 6 8 8 17 4 20 -3 4 -1 7 5 7 8 0 12 -22 11 -67 0 -47
-3 -62 -9 -48 -8 18 -9 17 -9 -7 -1 -15 -5 -30 -11 -33 -5 -3 -10 -12 -10 -18
0 -7 4 -6 10 3 8 12 10 11 10 -7 0 -20 -5 -23 -40 -23 l-40 0 0 55 c0 40 4 57
15 61 8 4 15 15 15 25 0 10 5 19 10 19 6 0 10 9 10 20 0 11 4 20 8 20 4 0 6
-16 4 -35z m109 13 c0 -22 1 -22 9 -3 6 15 9 8 9 -27 1 -59 21 -64 22 -5 1 23
1 45 0 50 0 4 6 7 14 7 10 0 16 -11 17 -32 1 -18 2 -42 3 -54 0 -11 11 -33 23
-49 28 -36 28 -67 -1 -101 -30 -34 -114 -42 -150 -14 -27 21 -36 92 -15 117
14 17 14 18 16 86 2 43 4 47 27 47 19 0 25 -5 26 -22z m92 2 c-3 -12 -8 -19
-11 -16 -5 6 5 36 12 36 2 0 2 -9 -1 -20z m89 -12 c1 -18 1 -44 0 -58 -1 -19
1 -22 8 -10 5 8 10 35 10 60 0 31 3 40 9 31 5 -8 10 -55 10 -105 0 -54 -3 -85
-8 -77 -6 9 -11 10 -15 2 -15 -24 -26 -9 -27 37 0 26 -4 65 -8 87 -8 36 -9 32
-10 -35 l-1 -75 -20 25 c-16 20 -19 38 -17 87 l2 63 33 0 c29 0 32 -3 34 -32z
m119 10 c1 -13 3 -30 4 -38 1 -8 3 -36 4 -62 0 -28 6 -48 12 -48 8 0 10 18 6
58 -5 53 -5 55 7 27 8 -16 12 -35 9 -42 -3 -7 2 -13 11 -13 9 0 16 5 16 10 0
6 7 10 15 10 13 0 17 -6 14 -26 0 -4 5 -10 12 -14 23 -15 1 -38 -40 -42 -23
-2 -41 -1 -41 2 0 3 -19 4 -41 2 -52 -5 -59 5 -57 81 2 55 12 75 21 40 3 -10
5 3 6 30 1 40 4 47 21 47 14 0 20 -7 21 -22z m366 -15 c-3 -10 -5 -4 -5 12 0
17 2 24 5 18 2 -7 2 -21 0 -30z m-2030 -15 c-3 -8 -6 -5 -6 6 -1 11 2 17 5 13
3 -3 4 -12 1 -19z m1460 -45 c-3 -10 -5 -4 -5 12 0 17 2 24 5 18 2 -7 2 -21 0
-30z m389 -89 c-13 -34 -56 -9 -56 32 0 20 30 17 31 -3 0 -14 2 -15 6 -3 13
41 17 44 21 17 2 -16 1 -35 -2 -43z m-1266 22 c0 -21 -6 -36 -15 -40 -16 -6
-17 -2 -17 39 0 35 0 35 17 35 10 0 15 -10 15 -34z m42 -29 c-4 -17 -5 -17
-17 0 -7 10 -12 20 -11 23 2 3 6 14 11 25 7 19 8 18 15 -5 3 -14 4 -33 2 -43z
m-625 6 c-3 -10 -5 -2 -5 17 0 19 2 27 5 18 2 -10 2 -26 0 -35z m-139 -100 c6
-38 14 -83 18 -101 6 -31 5 -33 -17 -30 -19 2 -25 11 -30 43 -6 38 -8 35 -13
-22 -3 -33 -16 -21 -16 15 0 22 4 44 10 47 5 3 7 19 4 34 -4 16 -1 32 5 35 6
4 11 16 11 27 0 44 17 14 28 -48z m52 16 c0 -31 -4 -48 -10 -44 -6 3 -10 -4
-10 -16 0 -43 -10 -12 -16 49 -5 58 -5 62 15 62 19 0 21 -6 21 -51z m50 -30
c0 -44 -5 -90 -12 -102 l-12 -22 -7 25 c-7 25 -7 25 -8 -4 -1 -24 -3 -27 -16
-16 -17 14 -20 40 -5 40 6 0 10 11 10 24 0 14 5 28 10 31 6 4 9 23 7 43 -5 45
0 62 19 62 11 0 14 -18 14 -81z m54 11 c5 19 8 42 7 51 -2 14 9 17 71 15 l73
-1 3 -47 c4 -64 22 -62 22 2 0 43 3 50 20 50 11 0 20 -3 20 -7 5 -75 13 -108
30 -130 27 -34 25 -63 -5 -95 -30 -32 -59 -42 -105 -34 -61 9 -77 42 -79 155
-1 30 -3 52 -6 50 -4 -5 -12 -77 -14 -126 -1 -31 -22 -25 -43 12 -12 22 -17
51 -16 105 1 73 1 74 7 20 6 -55 6 -55 15 -20z m277 3 c1 -78 17 -60 18 20 1
41 4 47 22 47 21 0 21 -4 17 -80 -5 -92 7 -109 17 -22 10 88 13 85 14 -11 l1
-88 -37 3 c-32 2 -39 7 -41 28 -2 13 -13 31 -24 38 -14 10 -18 21 -14 38 3 12
2 26 -4 29 -5 3 -10 19 -10 36 0 22 5 29 20 29 18 0 20 -7 21 -67z m152 33 c7
-44 -9 -69 -18 -28 -10 48 -20 46 -20 -4 0 -26 5 -44 11 -44 15 0 28 -80 14
-94 -7 -7 -10 1 -10 26 0 20 -5 40 -11 44 -9 5 -10 -3 -5 -30 4 -23 3 -36 -4
-36 -6 0 -10 37 -10 99 0 97 0 99 24 99 19 0 25 -7 29 -32z m37 -2 c0 -23 4
-33 11 -28 6 3 9 19 5 35 -5 25 -2 29 16 29 17 0 20 -4 15 -30 -4 -16 -2 -32
3 -35 6 -4 10 9 10 30 0 29 3 36 18 33 14 -3 17 -17 20 -101 2 -62 -1 -97 -8
-97 -5 0 -9 3 -9 8 3 18 -2 32 -11 32 -5 0 -10 -9 -10 -19 0 -23 -16 -37 -22
-20 -3 9 -9 9 -24 1 -11 -6 -24 -8 -30 -4 -8 7 -11 75 -6 165 3 47 22 49 22 1z
m155 -1 c4 -21 9 -45 12 -53 11 -29 15 17 4 54 -8 32 -7 36 10 36 16 0 18 -5
12 -45 -3 -29 -2 -45 5 -45 6 0 15 -12 20 -27 l10 -28 1 26 c1 15 -6 29 -14
33 -8 3 -15 11 -15 17 0 7 3 10 6 6 9 -8 30 14 38 41 5 14 15 22 30 22 21 0
23 -5 25 -52 2 -70 11 -75 11 -6 0 45 3 55 18 55 22 0 32 -15 32 -49 0 -15 5
-30 10 -33 12 -7 12 -1 1 48 l-9 37 69 0 69 0 0 -50 c0 -40 -3 -48 -15 -44
-11 5 -15 -1 -15 -17 0 -19 2 -21 10 -9 7 11 10 3 10 -30 0 -41 -2 -46 -24
-48 -26 -2 -42 25 -37 63 1 17 0 17 -9 5 -9 -13 -11 -13 -21 0 -8 12 -9 9 -4
-10 24 -84 -4 -130 -84 -138 -62 -5 -100 23 -102 76 -1 20 -3 29 -6 20 -5 -22
-23 -24 -23 -3 0 8 -4 15 -10 15 -5 0 -10 14 -10 30 0 17 -5 30 -11 30 -7 0
-8 -12 -4 -32 8 -36 8 -37 6 -56 -1 -10 -6 -10 -21 -2 -18 9 -20 21 -20 100 0
84 4 96 32 99 4 1 10 -16 13 -36z m543 10 c-2 -30 -15 -53 -29 -53 -5 0 -9 7
-9 15 0 8 -4 15 -10 15 -16 0 -12 -90 5 -106 8 -9 15 -22 15 -30 0 -24 -26
-15 -51 18 -32 42 -49 58 -60 58 -5 0 -9 22 -9 49 0 30 -5 51 -12 54 -7 3 26
6 74 6 l88 1 -2 -27z m83 14 c-14 -14 -15 -30 -1 -22 5 3 16 -8 25 -25 8 -16
20 -30 25 -30 5 0 12 -9 15 -21 5 -16 10 -18 21 -8 15 12 18 4 14 -35 -1 -11
3 -15 9 -12 7 4 11 -1 11 -13 0 -15 -6 -21 -24 -21 -20 0 -23 4 -20 32 4 34
-11 28 -18 -7 -2 -11 -13 -21 -25 -23 -19 -3 -22 3 -28 52 -4 31 -5 62 -2 71
4 8 2 17 -3 20 -13 8 -22 -30 -19 -90 3 -57 -5 -80 -15 -47 -4 11 -13 22 -20
25 -18 7 -21 128 -3 139 9 6 9 10 -3 17 -10 7 -2 10 29 9 30 0 40 -3 32 -11z
m317 -89 c-2 -70 -7 -103 -15 -106 -10 -3 -14 18 -15 80 l-2 83 -3 -71 -4 -72
-34 -6 c-40 -8 -75 7 -75 32 0 29 12 62 20 57 5 -3 6 -14 3 -24 -3 -10 0 -21
5 -25 5 -3 12 8 14 24 3 17 1 30 -4 30 -4 0 -8 5 -8 11 0 6 7 9 15 5 9 -3 15
0 15 8 0 7 7 19 16 27 8 7 13 21 11 31 -4 15 1 18 29 18 l34 0 -2 -102z m66
87 c-4 -8 1 -26 10 -40 11 -16 12 -26 5 -31 -8 -4 -8 -9 0 -17 14 -14 14 -62
1 -86 -6 -13 -17 -17 -35 -14 -25 5 -25 6 -25 104 0 99 0 99 25 99 18 0 23 -4
19 -15z m136 -50 c0 -42 -4 -64 -10 -60 -13 8 -13 -31 0 -56 9 -16 7 -19 -15
-19 -14 0 -25 5 -25 12 0 6 -6 3 -14 -7 -13 -18 -14 -18 -23 1 -5 10 -8 49 -7
86 1 50 -2 68 -12 72 -8 3 -14 12 -14 19 0 10 16 15 60 16 l60 2 0 -66z m56
43 c-3 -13 -6 -61 -6 -107 0 -114 -17 -94 -26 32 -7 96 -7 97 16 97 18 0 21
-4 16 -22z m33 -51 c-1 -12 -1 -44 0 -72 2 -39 5 -44 10 -25 6 23 12 26 42 22
14 -3 7 -44 -8 -50 -7 -2 -14 5 -14 15 -1 16 -2 16 -6 1 -3 -11 -14 -18 -30
-18 -25 0 -26 1 -19 53 3 28 6 65 6 80 0 17 4 26 10 22 6 -4 10 -16 9 -28z
m-2102 -19 c-3 -8 -6 -5 -6 6 -1 11 2 17 5 13 3 -3 4 -12 1 -19z m1253 -10 c0
-10 7 -18 15 -18 8 0 15 -7 15 -15 0 -8 5 -15 10 -15 6 0 10 -6 10 -14 0 -7 9
-16 21 -19 38 -10 12 -22 -40 -19 l-51 4 0 36 c0 21 -3 46 -6 58 -4 14 -1 21
10 21 9 0 16 -9 16 -19z m155 -46 c-3 -3 -13 1 -21 10 -14 14 -14 18 3 37 l18
22 3 -31 c2 -18 1 -35 -3 -38z m730 39 c3 -5 1 -12 -5 -16 -5 -3 -10 1 -10 9
0 18 6 21 15 7z m-495 -52 c0 -21 -4 -39 -10 -39 -5 0 -10 21 -10 46 0 27 4
43 10 39 6 -3 10 -24 10 -46z m387 -26 c-3 -10 -5 -2 -5 17 0 19 2 27 5 18 2
-10 2 -26 0 -35z m213 -3 c0 -5 -4 -10 -10 -10 -5 0 -10 5 -10 10 0 6 5 10 10
10 6 0 10 -4 10 -10z m-2090 -71 c0 -44 -17 -54 -22 -11 -2 21 -8 27 -27 27
-42 1 -33 21 9 22 l40 2 0 -40z m136 16 c7 -45 8 -175 2 -181 -10 -9 -21 42
-15 66 3 11 2 18 -2 16 -3 -2 -11 7 -18 20 -7 16 -8 24 -1 24 7 0 7 5 1 13 -5
6 -9 19 -8 27 1 8 3 21 3 28 3 21 35 10 38 -13z m304 5 c0 -11 5 -20 10 -20 6
0 10 -12 10 -26 0 -14 -4 -23 -10 -19 -5 3 -10 1 -10 -4 0 -6 5 -11 10 -11 6
0 10 -22 10 -48 0 -41 -3 -48 -20 -49 -18 -2 -20 4 -20 63 0 88 -22 83 -24 -6
-1 -41 -5 -65 -13 -67 -9 -3 -13 6 -13 26 0 32 -19 54 -21 24 -1 -10 -2 -24
-3 -32 -1 -13 -45 -24 -47 -12 0 3 -3 19 -5 35 -6 37 3 66 16 47 4 -8 7 -24 5
-37 -1 -13 2 -24 6 -24 5 0 9 18 9 40 0 27 4 40 13 40 16 0 36 40 38 73 1 17
3 16 9 -8 5 -18 9 -23 10 -12 1 9 4 22 5 27 1 6 3 12 4 15 4 15 31 2 31 -15z
m78 -45 c-3 -55 -1 -65 12 -65 13 0 15 10 12 65 -4 61 -3 65 17 65 13 0 21 -7
22 -17 1 -17 2 -17 6 0 5 18 22 24 24 7 2 -13 4 -22 12 -40 3 -8 8 -26 10 -40
3 -25 4 -25 12 4 5 21 4 31 -3 34 -18 6 -15 52 3 52 8 0 15 -7 15 -16 0 -8 -4
-12 -10 -9 -5 3 -10 2 -10 -4 0 -5 5 -11 10 -13 7 -2 10 -35 8 -88 -3 -74 -5
-82 -15 -60 l-12 25 0 -24 c-2 -51 -20 -4 -24 59 l-3 65 -2 -68 c-2 -65 -3
-68 -24 -65 -17 2 -24 11 -26 31 -2 15 -8 27 -14 27 -6 0 -8 -12 -4 -30 5 -26
3 -30 -18 -30 -19 0 -22 4 -19 24 3 13 0 32 -6 43 -8 15 -10 11 -9 -20 1 -20
-2 -40 -5 -44 -4 -3 -7 38 -7 93 l0 100 26 2 c26 2 26 2 22 -63z m192 45 c0
-13 5 -18 15 -14 8 3 13 11 12 16 -1 6 4 13 11 15 7 3 12 -4 12 -16 0 -12 -5
-21 -10 -21 -6 0 -5 -8 2 -19 7 -11 16 -17 22 -14 5 3 6 1 2 -5 -4 -7 -1 -12
8 -12 9 0 16 -7 16 -15 0 -10 10 -15 30 -15 28 0 30 -2 30 -40 l0 -40 -47 3
-48 3 0 46 c0 26 -4 50 -8 54 -4 4 -7 -20 -7 -54 0 -52 -2 -60 -16 -55 -11 4
-15 17 -13 44 2 21 -1 39 -6 38 -6 0 -9 -18 -8 -39 2 -34 -1 -40 -18 -40 -19
0 -20 5 -17 100 2 88 5 100 20 100 11 0 18 -8 18 -20z m312 11 c4 12 7 12 21
0 19 -15 22 -38 6 -43 -8 -3 -8 -20 -1 -58 6 -33 7 -56 1 -58 -5 -2 -9 -10 -9
-17 0 -7 -7 -15 -15 -19 -11 -4 -15 1 -15 19 0 14 -4 25 -10 25 -5 0 -10 -9
-10 -21 0 -28 -24 -19 -28 12 -2 13 -8 29 -13 35 -6 7 -2 17 10 28 20 18 35 9
44 -29 2 -11 3 16 1 60 -2 46 0 74 5 66 7 -11 9 -11 13 0z m128 -53 c0 -35 3
-79 6 -100 7 -39 -4 -47 -56 -40 -25 4 -25 5 -25 103 l0 99 38 0 37 0 0 -62z
m80 47 c30 -15 30 -16 29 -103 -1 -85 -2 -86 -10 -31 -4 30 -10 68 -13 85 -2
16 -5 32 -5 37 -1 4 -5 7 -9 7 -4 0 -7 -15 -5 -32 12 -148 12 -148 -17 -148
-27 0 -28 1 -28 71 -1 39 -4 84 -7 100 -6 25 -4 29 15 29 11 0 34 -7 50 -15z
m99 -90 c1 -61 -2 -95 -9 -95 -5 0 -11 23 -11 53 -1 28 -3 44 -6 35 -2 -10 -9
-18 -15 -18 -7 0 -8 -13 -5 -35 3 -19 1 -37 -5 -41 -18 -11 -1 166 18 187 9
10 20 16 24 14 4 -3 8 -47 9 -100z m106 88 c-3 -8 -5 -54 -5 -101 l0 -87 -35
0 -35 0 0 78 c0 45 -4 77 -10 77 -5 0 -10 11 -10 25 0 24 3 25 50 24 40 -2 50
-5 45 -16z m57 -25 l4 -43 8 43 c10 51 26 56 19 6 -3 -25 -1 -34 6 -30 6 4 11
20 11 37 0 19 5 29 15 29 12 0 15 -13 15 -58 0 -32 4 -62 10 -68 6 -6 6 -15 0
-24 -8 -12 -10 -12 -10 4 0 30 -12 11 -20 -31 l-7 -38 -13 30 -13 30 -6 -30
c-8 -38 -23 -18 -21 28 1 17 1 41 0 52 -2 17 -3 16 -10 -5 -6 -18 -8 -7 -9 43
-1 73 16 93 21 25z m165 -18 c1 -41 -1 -49 -7 -30 -7 22 -8 22 -9 5 -1 -12 4
-26 10 -32 8 -8 8 -16 -2 -28 -34 -40 -51 -56 -56 -51 -8 7 17 66 28 66 5 0 9
5 9 12 0 9 -3 9 -12 0 -23 -23 -28 -12 -28 54 l0 65 33 -3 c32 -3 32 -4 34
-58z m20 -17 c-2 -16 -4 -3 -4 27 0 30 2 43 4 28 2 -16 2 -40 0 -55z m55 12
c-2 -36 -7 -65 -11 -65 -19 0 -31 29 -31 77 0 48 2 53 23 53 21 0 22 -3 19
-65z m108 22 c0 -31 3 -38 10 -27 7 10 10 -7 10 -57 0 -58 -3 -73 -15 -73 -10
0 -15 11 -15 35 0 19 -5 35 -10 35 -6 0 -10 -6 -9 -12 4 -30 -2 -58 -11 -58
-6 0 -10 27 -10 62 0 69 -10 73 -15 6 -5 -56 -5 -56 -15 -33 -10 23 -12 110
-4 141 5 17 14 22 45 22 l39 1 0 -42z m68 31 c-3 -7 -2 -39 2 -71 4 -39 3 -54
-4 -47 -8 8 -14 -4 -22 -37 l-12 -48 -1 83 c-1 57 2 81 10 77 6 -4 5 3 -3 14
-11 18 -11 23 2 31 21 13 33 12 28 -2z m42 -6 c10 -9 20 -35 23 -57 3 -33 4
-30 5 17 2 55 3 57 30 54 22 -3 28 -9 30 -35 2 -17 7 -31 13 -31 5 0 9 -29 9
-65 0 -39 -4 -65 -11 -65 -5 0 -8 4 -5 9 3 5 -1 11 -9 15 -9 3 -15 0 -15 -9 0
-16 -1 -16 -70 -18 -40 -2 -45 1 -48 21 -2 13 3 24 11 28 13 4 14 20 10 80 -3
41 -3 74 1 74 4 0 15 -8 26 -18z m150 -49 c0 -38 -3 -85 -6 -105 -12 -72 -24
-38 -24 67 0 87 3 105 15 105 12 0 15 -14 15 -67z m28 35 c1 -17 11 -37 21
-45 12 -8 20 -28 23 -53 4 -47 -7 -54 -16 -8 -8 39 -14 34 -18 -15 -1 -21 -8
-43 -15 -48 -9 -8 -12 12 -12 95 0 58 4 106 8 106 4 0 8 -14 9 -32z m-2075 -1
c4 3 6 -16 5 -43 -1 -43 -2 -45 -5 -11 -2 20 -9 37 -15 37 -6 0 -8 -11 -4 -27
5 -21 4 -24 -4 -13 -5 8 -10 28 -10 44 0 23 3 26 13 17 8 -6 17 -8 20 -4z
m1407 -54 c-1 -28 -3 -34 -10 -22 -8 14 -3 59 6 59 2 0 4 -17 4 -37z m-1264
-8 c15 0 20 -9 22 -44 4 -58 -1 -70 -32 -64 -25 5 -26 8 -25 77 0 45 3 64 8
51 4 -11 17 -20 27 -20z m64 -60 c0 -35 -4 -45 -16 -45 -11 0 -14 5 -10 16 3
9 6 29 6 45 0 16 5 29 10 29 6 0 10 -20 10 -45z m17 -27 c-2 -13 -4 -3 -4 22
0 25 2 35 4 23 2 -13 2 -33 0 -45z m661 20 c9 -34 9 -38 -9 -38 -12 0 -23 10
-30 27 -8 22 -7 30 7 40 21 15 19 17 32 -29z m757 24 c-3 -3 -11 0 -18 7 -9
10 -8 11 6 5 10 -3 15 -9 12 -12z m-806 -49 c1 -7 -3 -13 -9 -13 -5 0 -10 17
-9 38 1 33 2 34 9 12 4 -14 8 -31 9 -37z m568 -5 c-2 -13 -4 -3 -4 22 0 25 2
35 4 23 2 -13 2 -33 0 -45z m20 15 c-3 -10 -5 -4 -5 12 0 17 2 24 5 18 2 -7 2
-21 0 -30z m-1327 -47 c0 -3 -4 -8 -10 -11 -5 -3 -10 -1 -10 4 0 6 5 11 10 11
6 0 10 -2 10 -4z m60 -6 c0 -5 -7 -7 -15 -4 -8 4 -15 8 -15 10 0 2 7 4 15 4 8
0 15 -4 15 -10z m42 -2 c8 -21 -7 -65 -16 -50 -4 7 -5 19 -2 27 3 8 1 15 -4
15 -6 0 -10 5 -10 10 0 14 27 12 32 -2z m25 -50 c-2 -13 -4 -3 -4 22 0 25 2
35 4 23 2 -13 2 -33 0 -45z m63 29 c0 -25 -4 -33 -19 -33 -15 0 -19 8 -19 33
0 26 4 33 19 33 15 0 19 -7 19 -33z m111 20 c-1 -12 -15 -9 -19 4 -3 6 1 10 8
8 6 -3 11 -8 11 -12z m249 -9 c0 -19 -2 -20 -10 -8 -13 19 -13 30 0 30 6 0 10
-10 10 -22z m60 2 c0 -13 -5 -18 -15 -14 -8 4 -15 12 -15 20 0 8 7 14 15 14 8
0 15 -9 15 -20z m96 -27 c2 -31 -2 -40 -11 -36 -8 2 -15 19 -17 36 -2 17 -9
33 -17 35 -11 4 -13 -2 -8 -26 4 -17 2 -34 -3 -37 -6 -3 -11 3 -11 14 -1 12
-2 27 -3 34 -1 6 -5 15 -11 20 -5 4 10 6 35 5 l45 -3 1 -42z m40 31 c-3 -8 -2
-23 3 -33 10 -17 -2 -51 -11 -35 -15 26 -18 68 -6 75 19 12 21 11 14 -7z m70
-2 c7 -10 14 -42 17 -72 3 -30 3 -46 0 -35 -3 11 -10 25 -15 32 -5 7 -6 18 -2
24 4 8 3 9 -4 5 -7 -4 -12 -19 -12 -33 0 -33 -7 -27 -13 12 -3 17 -8 42 -12
58 -6 22 -4 27 12 27 10 0 23 -8 29 -18z m71 -24 c20 -72 25 -125 14 -133 -6
-3 -9 -11 -6 -16 4 -5 2 -9 -4 -9 -5 0 -11 17 -13 38 -2 22 -8 36 -15 35 -8
-2 -11 15 -8 57 3 49 1 60 -13 63 -11 3 -7 5 8 6 22 1 27 -5 37 -41z m123 -7
c0 -58 8 -83 23 -74 6 4 8 -2 5 -15 -4 -12 -2 -22 3 -22 12 0 11 57 -1 65 -5
3 -10 26 -10 51 0 41 2 44 28 44 27 0 27 -1 30 -71 1 -40 6 -77 9 -83 11 -16
14 -46 5 -47 -50 -6 -105 -2 -114 8 -9 11 -13 10 -24 -4 -9 -12 -13 -14 -14
-5 0 7 -4 11 -9 8 -15 -10 -21 21 -21 104 0 85 2 88 58 89 32 1 32 1 32 -48z
m131 -28 c1 -91 17 -73 18 20 1 31 5 57 10 57 6 0 10 -22 9 -48 0 -27 6 -67
12 -89 7 -23 10 -48 8 -55 -9 -22 -56 -21 -68 1 -13 25 -13 191 0 191 6 0 10
-33 11 -77z m142 60 c-3 -7 -9 -10 -14 -7 -5 3 -9 0 -9 -5 0 -6 6 -11 14 -11
11 0 12 -7 5 -33 -5 -19 -10 -54 -12 -78 -2 -36 -6 -45 -22 -47 -28 -4 -45 46
-45 131 l0 67 44 -2 c32 -1 43 -5 39 -15z m72 -13 c-3 -16 -2 -37 4 -47 8 -14
10 -8 11 30 0 34 4 47 14 47 9 0 14 -9 14 -22 -4 -63 3 -129 12 -123 6 3 10
21 11 38 0 24 2 27 8 14 4 -10 10 -18 14 -18 50 5 67 0 67 -21 0 -17 -3 -19
-9 -10 -7 11 -10 10 -15 -3 -3 -9 -6 -25 -6 -36 0 -29 -27 -23 -36 9 l-7 27
-6 -29 c-7 -35 -31 -48 -31 -17 0 12 -6 21 -15 21 -8 0 -15 -7 -15 -15 0 -19
-14 -19 -30 0 -7 9 -11 36 -8 70 1 30 0 55 -4 55 -5 0 -8 9 -8 21 0 11 5 17
10 14 6 -3 10 1 10 9 0 9 5 16 11 16 7 0 8 -11 4 -30z m305 0 c0 -16 -5 -30
-11 -30 -5 0 -7 -5 -3 -11 3 -6 2 -14 -3 -18 -6 -3 -14 -22 -17 -41 -6 -32 -6
-33 8 -17 8 11 12 26 9 35 -4 14 -3 15 6 2 14 -20 18 -12 24 48 3 30 8 56 11
59 13 14 26 -13 26 -58 0 -35 4 -49 14 -49 16 0 26 30 26 78 l0 32 79 0 79 0
-2 -102 c-1 -71 -5 -103 -13 -105 -10 -4 -13 15 -13 71 0 72 -1 76 -22 75 -13
0 -17 -3 -10 -6 16 -6 15 -38 -1 -86 -13 -36 -14 -37 -25 -15 -9 20 -10 19 -6
-12 13 -94 -145 -140 -186 -53 -13 27 -19 30 -42 26 -30 -6 -32 -4 -21 23 6
16 7 16 15 -2 8 -18 8 -18 5 1 -3 26 -34 32 -40 8 -3 -10 -5 1 -6 24 -1 40 0
42 29 41 18 -1 31 -7 33 -17 3 -9 5 -2 6 15 0 17 8 37 16 44 8 7 15 25 15 41
0 16 5 29 10 29 6 0 10 -13 10 -30z m280 15 c0 -8 5 -15 10 -15 6 0 10 7 10
15 0 8 5 15 10 15 16 0 12 -108 -6 -135 -9 -13 -13 -29 -9 -34 3 -6 2 -18 -3
-27 -7 -12 -11 -4 -16 33 -16 121 -18 163 -7 163 6 0 11 -7 11 -15z m-634
-172 c-3 -7 -13 -13 -23 -13 -12 0 -14 3 -6 8 7 4 9 13 4 21 -10 15 -3 51 10
51 5 0 10 26 11 58 2 43 3 36 5 -27 2 -46 2 -90 -1 -98z m-579 50 c-10 -10
-26 -29 -36 -43 -18 -23 -20 -23 -27 -7 -8 23 31 67 59 67 19 0 19 -1 4 -17z
m53 1 c0 -2 -7 -4 -15 -4 -8 0 -15 4 -15 10 0 5 7 7 15 4 8 -4 15 -8 15 -10z
m1230 -30 c0 -19 -5 -34 -10 -34 -6 0 -9 17 -8 39 4 47 18 44 18 -5z m-483 -6
c-3 -7 -5 -2 -5 12 0 14 2 19 5 13 2 -7 2 -19 0 -25z m530 -20 c-3 -8 -6 -5
-6 6 -1 11 2 17 5 13 3 -3 4 -12 1 -19z m-1097 -65 l-1 -38 -14 25 c-19 33
-19 50 0 50 11 0 15 -11 15 -37z m128 5 c-4 -45 -26 -48 -26 -3 0 24 5 35 15
35 10 0 13 -9 11 -32z m89 10 c-3 -8 -6 -5 -6 6 -1 11 2 17 5 13 3 -3 4 -12 1
-19z m40 -10 c-3 -7 -5 -2 -5 12 0 14 2 19 5 13 2 -7 2 -19 0 -25z m110 10
c-3 -8 -6 -5 -6 6 -1 11 2 17 5 13 3 -3 4 -12 1 -19z m40 0 c-3 -8 -6 -5 -6 6
-1 11 2 17 5 13 3 -3 4 -12 1 -19z m63 6 c0 -8 -4 -12 -10 -9 -5 3 -10 1 -10
-4 0 -6 -4 -11 -10 -11 -5 0 -10 9 -10 20 0 13 7 20 20 20 11 0 20 -7 20 -16z
m37 -36 c-2 -13 -4 -5 -4 17 -1 22 1 32 4 23 2 -10 2 -28 0 -40z m43 20 c0
-25 -3 -29 -10 -18 -13 20 -13 50 0 50 6 0 10 -15 10 -32z m23 12 c-3 -12 -8
-19 -11 -16 -5 6 5 36 12 36 2 0 2 -9 -1 -20z m66 -29 c-3 -51 -19 -62 -19
-13 -1 26 -1 26 -15 8 -14 -19 -15 -18 -15 17 0 33 3 37 25 37 25 0 26 -3 24
-49z m301 -18 c0 -38 -3 -79 -7 -93 l-7 -25 -5 23 c-3 13 -10 23 -16 23 -5 0
-13 -10 -17 -23 -4 -15 -6 -17 -7 -6 -1 11 -6 15 -16 12 -8 -4 -15 -1 -15 6 0
6 -4 8 -10 5 -5 -3 -10 1 -10 10 0 21 59 82 62 63 0 -7 2 -19 2 -27 1 -8 7
-16 15 -19 10 -3 12 2 8 19 -20 85 -20 99 2 99 19 0 21 -5 21 -67z m170 21 c0
-40 -2 -45 -15 -34 -12 10 -14 45 -6 78 1 1 6 2 11 2 6 0 10 -21 10 -46z
m-440 -28 c0 -8 -4 -18 -10 -21 -5 -3 -10 3 -10 14 0 12 5 21 10 21 6 0 10 -6
10 -14z m464 -12 c3 -8 2 -12 -4 -9 -6 3 -10 10 -10 16 0 14 7 11 14 -7z m43
-6 c-3 -8 -6 -5 -6 6 -1 11 2 17 5 13 3 -3 4 -12 1 -19z m-438 -44 c-7 -9 -18
-25 -24 -37 -13 -27 -35 -34 -35 -11 0 22 38 64 58 64 12 0 12 -3 1 -16z m787
-237 c16 -44 17 -47 5 -47 -10 0 -32 79 -30 107 1 15 2 15 6 -2 2 -11 11 -37
19 -58z m9 -77 c3 -5 1 -10 -6 -10 -8 0 -10 -18 -7 -60 2 -33 1 -60 -3 -60 -4
0 -9 32 -11 70 -2 49 1 70 9 70 6 0 15 -4 18 -10z m34 -2 c-1 -1 2 -12 8 -23
6 -11 14 -52 18 -92 6 -67 5 -72 -14 -70 -17 1 -19 7 -16 47 1 25 6 53 10 64
5 11 3 26 -3 37 -12 19 -17 57 -6 47 3 -4 5 -8 3 -10z m-19 -154 c0 -40 -18
-43 -32 -5 -6 19 -5 22 7 17 9 -3 15 0 15 9 0 8 2 15 5 15 3 0 5 -16 5 -36z
m-43 -26 c-3 -8 -6 -5 -6 6 -1 11 2 17 5 13 3 -3 4 -12 1 -19z"/>
<path d="M1797 2913 c-8 -16 -7 -73 2 -73 7 0 21 46 21 71 0 11 -17 12 -23 2z"/>
<path d="M2022 2860 c0 -14 2 -19 5 -12 2 6 2 18 0 25 -3 6 -5 1 -5 -13z"/>
<path d="M2300 2924 c0 -18 -4 -36 -10 -39 -5 -3 -10 -14 -10 -22 0 -14 4 -12
21 6 12 13 19 30 16 42 -3 10 -1 22 4 25 14 8 11 21 -6 21 -10 0 -15 -11 -15
-33z"/>
<path d="M2281 2824 c0 -11 3 -14 6 -6 3 7 2 16 -1 19 -3 4 -6 -2 -5 -13z"/>
<path d="M3215 2880 c3 -5 8 -10 11 -10 2 0 4 5 4 10 0 6 -5 10 -11 10 -5 0
-7 -4 -4 -10z"/>
<path d="M3524 2934 c3 -9 6 -22 6 -30 0 -8 7 -14 15 -14 18 0 18 2 3 35 -12
27 -34 36 -24 9z"/>
<path d="M3140 2919 c0 -11 4 -18 10 -14 5 3 7 12 3 20 -7 21 -13 19 -13 -6z"/>
<path d="M3140 2869 c0 -11 4 -18 10 -14 5 3 7 12 3 20 -7 21 -13 19 -13 -6z"/>
<path d="M1402 2616 c-15 -33 -2 -42 15 -10 15 31 16 34 5 34 -5 0 -14 -11
-20 -24z"/>
<path d="M1542 2610 c0 -14 2 -19 5 -12 2 6 2 18 0 25 -3 6 -5 1 -5 -13z"/>
<path d="M1640 2590 c0 -5 5 -10 10 -10 6 0 10 5 10 10 0 6 -4 10 -10 10 -5 0
-10 -4 -10 -10z"/>
<path d="M2006 2747 c-15 -11 -17 -22 -13 -73 4 -32 6 -65 7 -71 0 -7 4 -13 9
-13 13 0 21 80 10 108 -7 18 -6 27 2 33 6 3 10 12 8 18 -3 8 -9 8 -23 -2z"/>
<path d="M2460 2734 c0 -8 5 -12 10 -9 6 3 10 10 10 16 0 5 -4 9 -10 9 -5 0
-10 -7 -10 -16z"/>
<path d="M2300 2685 c0 -15 4 -24 10 -20 6 3 10 12 10 20 0 8 -4 17 -10 20 -6
4 -10 -5 -10 -20z"/>
<path d="M2270 2685 c0 -8 4 -15 10 -15 5 0 7 7 4 15 -4 8 -8 15 -10 15 -2 0
-4 -7 -4 -15z"/>
<path d="M2233 2663 c-18 -7 -16 -33 2 -33 8 0 15 9 15 20 0 11 -1 20 -2 19
-2 0 -9 -3 -15 -6z"/>
<path d="M2270 2639 c0 -5 5 -7 10 -4 6 3 10 8 10 11 0 2 -4 4 -10 4 -5 0 -10
-5 -10 -11z"/>
<path d="M2921 2716 c-1 -30 3 -46 8 -40 5 5 6 27 1 49 l-8 40 -1 -49z"/>
<path d="M1282 2473 c-1 -12 -6 -25 -12 -28 -5 -3 -10 -15 -10 -26 0 -19 1
-19 16 -5 10 10 14 28 11 48 -2 19 -5 23 -5 11z"/>
<path d="M1520 2505 c0 -22 5 -47 10 -55 7 -11 10 -4 10 25 0 22 -5 47 -10 55
-7 11 -10 4 -10 -25z"/>
<path d="M1411 2444 c0 -11 3 -14 6 -6 3 7 2 16 -1 19 -3 4 -6 -2 -5 -13z"/>
<path d="M1642 2490 c0 -19 2 -27 5 -17 2 9 2 25 0 35 -3 9 -5 1 -5 -18z"/>
<path d="M1732 2435 l0 -80 9 63 c6 40 6 69 0 80 -8 12 -10 -6 -9 -63z"/>
<path d="M1642 2410 c0 -19 2 -27 5 -17 2 9 2 25 0 35 -3 9 -5 1 -5 -18z"/>
<path d="M1660 2376 c0 -9 5 -16 10 -16 6 0 10 4 10 9 0 6 -4 13 -10 16 -5 3
-10 -1 -10 -9z"/>
<path d="M2077 2523 c-2 -5 -1 -19 4 -33 7 -23 7 -23 8 8 1 31 -3 40 -12 25z"/>
<path d="M2098 2461 c-2 -16 -1 -37 3 -47 5 -13 8 -3 8 29 1 53 -5 62 -11 18z"/>
<path d="M2226 2533 c-8 -9 -6 -63 3 -88 6 -15 9 -6 12 33 4 52 -1 69 -15 55z"/>
<path d="M2201 2414 c0 -11 3 -14 6 -6 3 7 2 16 -1 19 -3 4 -6 -2 -5 -13z"/>
<path d="M2601 2474 c0 -11 3 -14 6 -6 3 7 2 16 -1 19 -3 4 -6 -2 -5 -13z"/>
<path d="M2893 2420 c0 -36 2 -50 4 -32 2 17 2 47 0 65 -2 17 -4 3 -4 -33z"/>
<path d="M2922 2420 c0 -14 2 -19 5 -12 2 6 2 18 0 25 -3 6 -5 1 -5 -13z"/>
<path d="M3011 2394 c0 -11 3 -14 6 -6 3 7 2 16 -1 19 -3 4 -6 -2 -5 -13z"/>
<path d="M1341 2384 c0 -11 3 -14 6 -6 3 7 2 16 -1 19 -3 4 -6 -2 -5 -13z"/>
<path d="M1131 2414 c0 -11 3 -14 6 -6 3 7 2 16 -1 19 -3 4 -6 -2 -5 -13z"/>
<path d="M1241 2294 c0 -11 3 -14 6 -6 3 7 2 16 -1 19 -3 4 -6 -2 -5 -13z"/>
<path d="M1509 2318 c-7 -15 -6 -59 2 -63 5 -4 9 10 9 29 0 29 -6 46 -11 34z"/>
<path d="M1536 2288 c-8 -31 -8 -53 1 -45 7 7 15 67 9 67 -2 0 -6 -10 -10 -22z"/>
<path d="M1536 2178 c-3 -13 -1 -27 4 -32 7 -7 10 1 10 22 0 37 -5 41 -14 10z"/>
<path d="M1732 2289 c-9 -35 0 -69 19 -69 9 0 4 88 -6 98 -2 2 -8 -11 -13 -29z"/>
<path d="M2085 2260 c0 -16 3 -30 8 -30 4 0 7 14 7 30 0 17 -3 30 -7 30 -5 0
-8 -13 -8 -30z"/>
<path d="M2001 2204 c0 -11 3 -14 6 -6 3 7 2 16 -1 19 -3 4 -6 -2 -5 -13z"/>
<path d="M2201 2308 c0 -9 -4 -25 -7 -35 -5 -14 -4 -15 5 -7 7 7 11 22 8 35
-2 13 -5 16 -6 7z"/>
<path d="M2420 2306 c0 -8 5 -18 10 -21 6 -3 10 3 10 14 0 12 -4 21 -10 21 -5
0 -10 -6 -10 -14z"/>
<path d="M2672 2210 c0 -14 2 -19 5 -12 2 6 2 18 0 25 -3 6 -5 1 -5 -13z"/>
<path d="M2697 2223 c-11 -10 -8 -51 3 -58 6 -4 10 8 10 29 0 37 -2 41 -13 29z"/>
<path d="M2821 2184 c0 -11 3 -14 6 -6 3 7 2 16 -1 19 -3 4 -6 -2 -5 -13z"/>
<path d="M2267 2003 c-11 -10 -8 -43 3 -43 6 0 10 11 10 25 0 26 -2 29 -13 18z"/>
<path d="M2470 2049 c0 -11 -4 -17 -10 -14 -15 9 -12 -4 5 -21 8 -9 13 -25 11
-37 -1 -12 -1 -17 1 -10 2 7 13 15 24 18 22 7 18 41 -8 61 -11 10 -11 13 -1
17 8 4 7 6 -4 6 -12 1 -18 -6 -18 -20z"/>
<path d="M2672 2080 c0 -14 2 -19 5 -12 2 6 2 18 0 25 -3 6 -5 1 -5 -13z"/>
<path d="M2751 2014 c0 -11 3 -14 6 -6 3 7 2 16 -1 19 -3 4 -6 -2 -5 -13z"/>
<path d="M2886 2082 c-4 -13 -5 -26 -2 -29 10 -11 18 4 14 29 l-4 23 -8 -23z"/>
<path d="M3091 2024 c0 -11 3 -14 6 -6 3 7 2 16 -1 19 -3 4 -6 -2 -5 -13z"/>
<path d="M2191 1724 c0 -11 3 -14 6 -6 3 7 2 16 -1 19 -3 4 -6 -2 -5 -13z"/>
<path d="M2600 1730 c-20 -12 -10 -19 14 -10 11 3 15 9 10 13 -6 3 -16 2 -24
-3z"/>
<path d="M2713 1820 c0 -25 2 -35 4 -22 2 12 2 32 0 45 -2 12 -4 2 -4 -23z"/>
<path d="M2951 1754 c0 -11 3 -14 6 -6 3 7 2 16 -1 19 -3 4 -6 -2 -5 -13z"/>
<path d="M3010 1775 c0 -8 5 -15 10 -15 6 0 10 7 10 15 0 8 -4 15 -10 15 -5 0
-10 -7 -10 -15z"/>
<path d="M1488 1654 c-3 -3 -2 -23 3 -45 5 -22 7 -44 4 -50 -4 -5 -1 -9 4 -9
13 0 15 96 2 104 -4 3 -11 3 -13 0z"/>
<path d="M1595 1580 c-3 -5 -1 -10 4 -10 6 0 11 5 11 10 0 6 -2 10 -4 10 -3 0
-8 -4 -11 -10z"/>
<path d="M1890 1537 c0 -26 5 -47 10 -47 6 0 8 16 4 43 -9 58 -14 59 -14 4z"/>
<path d="M2305 1641 c-3 -10 -1 -29 4 -42 8 -21 10 -18 9 19 -1 46 -4 51 -13
23z"/>
<path d="M2191 1598 c-1 -30 3 -38 17 -38 11 0 13 3 5 8 -6 4 -13 21 -16 37
-4 27 -4 27 -6 -7z"/>
<path d="M2012 1600 c0 -14 2 -19 5 -12 2 6 2 18 0 25 -3 6 -5 1 -5 -13z"/>
<path d="M2120 1571 c0 -12 5 -21 10 -21 6 0 10 6 10 14 0 8 -4 18 -10 21 -5
3 -10 -3 -10 -14z"/>
<path d="M2903 1550 c0 -25 2 -35 4 -22 2 12 2 32 0 45 -2 12 -4 2 -4 -23z"/>
<path d="M3017 1583 c-4 -3 -7 -29 -6 -57 0 -28 3 -44 6 -36 3 8 10 18 16 21
5 4 6 13 1 20 -5 8 -7 24 -5 37 3 23 -1 27 -12 15z"/>
<path d="M3151 1624 c0 -11 3 -14 6 -6 3 7 2 16 -1 19 -3 4 -6 -2 -5 -13z"/>
<path d="M1751 1284 c0 -11 3 -14 6 -6 3 7 2 16 -1 19 -3 4 -6 -2 -5 -13z"/>
<path d="M2111 1304 c0 -11 3 -14 6 -6 3 7 2 16 -1 19 -3 4 -6 -2 -5 -13z"/>
<path d="M2698 1428 c-3 -7 -4 -33 -2 -58 4 -60 6 -70 14 -70 3 0 6 29 5 65
-1 63 -8 89 -17 63z"/>
<path d="M2696 1281 c-4 -5 -2 -12 3 -15 5 -4 12 -2 15 3 4 5 2 12 -3 15 -5 4
-12 2 -15 -3z"/>
<path d="M2920 1389 c0 -5 5 -7 10 -4 6 3 10 8 10 11 0 2 -4 4 -10 4 -5 0 -10
-5 -10 -11z"/>
<path d="M3105 1420 c3 -5 8 -10 11 -10 2 0 4 5 4 10 0 6 -5 10 -11 10 -5 0
-7 -4 -4 -10z"/>
<path d="M3120 1340 c0 -5 5 -10 10 -10 6 0 10 5 10 10 0 6 -4 10 -10 10 -5 0
-10 -4 -10 -10z"/>
<path d="M3257 1350 c3 -30 7 -57 9 -59 7 -8 2 64 -6 89 -6 16 -7 6 -3 -30z"/>
<path d="M1492 1295 c0 -16 2 -22 5 -12 2 9 2 23 0 30 -3 6 -5 -1 -5 -18z"/>
<path d="M2397 1113 c2 -73 13 -82 13 -10 0 31 -3 58 -7 60 -5 3 -7 -20 -6
-50z"/>
<path d="M2689 1130 c-5 -63 6 -101 14 -50 7 42 5 86 -4 95 -4 3 -9 -17 -10
-45z"/>
<path d="M2816 1094 c-4 -9 -4 -19 -1 -22 2 -3 7 3 11 12 4 9 4 19 1 22 -2 3
-7 -3 -11 -12z"/>
<path d="M3306 1212 c-2 -4 -1 -14 5 -22 7 -12 9 -10 9 8 0 23 -5 28 -14 14z"/>
<path d="M3254 1115 c1 -8 4 -16 7 -17 2 -2 3 -1 2 1 -2 2 2 10 8 18 9 10 8
13 -4 13 -8 0 -14 -7 -13 -15z"/>
<path d="M3400 1180 c0 -5 5 -10 10 -10 6 0 10 5 10 10 0 6 -4 10 -10 10 -5 0
-10 -4 -10 -10z"/>
<path d="M2333 3400 c0 -30 2 -43 4 -27 2 15 2 39 0 55 -2 15 -4 2 -4 -28z"/>
<path d="M2917 3345 c-4 -26 1 -28 43 -15 15 5 19 8 8 9 -9 1 -23 8 -31 16
-13 12 -15 11 -20 -10z"/>
<path d="M2500 3260 c0 -48 4 -64 21 -81 19 -19 30 -21 111 -17 80 3 92 6 109
27 10 13 19 37 18 55 0 28 -1 29 -9 9 -8 -19 -17 -23 -54 -23 -59 0 -96 15
-96 39 0 21 -18 31 -56 31 -13 0 -24 5 -24 10 0 6 -4 10 -10 10 -6 0 -10 -27
-10 -60z"/>
<path d="M3138 3313 c12 -2 30 -2 40 0 9 3 -1 5 -23 4 -22 0 -30 -2 -17 -4z"/>
<path d="M2751 3294 c0 -11 3 -14 6 -6 3 7 2 16 -1 19 -3 4 -6 -2 -5 -13z"/>
<path d="M3218 3294 c22 -15 22 -17 7 -40 -8 -13 -11 -24 -5 -24 5 0 17 12 27
26 16 25 16 27 -2 40 -10 8 -26 14 -34 14 -11 0 -9 -5 7 -16z"/>
<path d="M2940 3281 c-20 -5 -26 -14 -28 -45 -2 -24 2 -42 10 -47 24 -15 31
-9 14 10 -24 27 -12 59 27 76 33 15 20 18 -23 6z"/>
<path d="M2968 3173 c7 -3 16 -2 19 1 4 3 -2 6 -13 5 -11 0 -14 -3 -6 -6z"/>
<path d="M2910 3136 c0 -2 7 -6 15 -10 8 -3 15 -1 15 4 0 6 -7 10 -15 10 -8 0
-15 -2 -15 -4z"/>
<path d="M3746 2888 c-3 -13 -2 -26 2 -30 4 -4 9 6 10 22 3 35 -3 39 -12 8z"/>
<path d="M3690 2805 c-14 -8 -34 -14 -45 -15 -11 0 -29 -6 -40 -14 -45 -30
-223 -98 -272 -103 -29 -3 -53 -10 -53 -14 0 -5 -14 -12 -32 -17 -21 -5 -38
-19 -51 -42 -10 -19 -25 -40 -32 -46 -8 -6 -15 -34 -17 -67 -2 -37 -7 -57 -15
-57 -7 0 -13 -5 -13 -12 0 -7 -12 -22 -27 -33 -26 -22 -25 -45 2 -45 18 0 61
80 70 128 7 46 68 129 110 152 17 8 53 21 80 28 28 7 75 22 105 33 30 12 64
24 75 28 19 7 40 17 158 71 26 12 47 26 47 31 0 13 -21 11 -50 -6z"/>
<path d="M3070 2716 c0 -9 5 -16 10 -16 6 0 10 4 10 9 0 6 -4 13 -10 16 -5 3
-10 -1 -10 -9z"/>
<path d="M3141 2153 c-1 -40 3 -73 7 -73 5 0 7 28 4 63 -5 89 -10 94 -11 10z"/>
<path d="M1005 2180 c3 -4 14 -10 25 -13 11 -3 18 -2 15 3 -3 4 -14 10 -25 13
-11 3 -18 2 -15 -3z"/>
<path d="M1060 2160 c0 -5 5 -10 10 -10 6 0 10 5 10 10 0 6 -4 10 -10 10 -5 0
-10 -4 -10 -10z"/>
<path d="M1090 2150 c0 -6 4 -8 10 -5 5 3 19 1 31 -5 18 -10 40 -7 28 4 -12
11 -69 16 -69 6z"/>
<path d="M3640 1920 c-19 -11 -43 -23 -52 -26 -10 -4 -18 -10 -18 -15 0 -5
-17 -17 -38 -28 -21 -11 -44 -26 -51 -35 -7 -8 -26 -18 -42 -21 -31 -7 -38
-19 -15 -28 17 -7 60 15 146 73 66 45 74 52 99 83 17 22 13 21 -29 -3z"/>
<path d="M3330 1840 c0 -16 5 -30 10 -30 6 0 10 14 10 30 0 17 -4 30 -10 30
-5 0 -10 -13 -10 -30z"/>
<path d="M3617 1531 c30 -30 42 -26 23 8 -6 12 -20 21 -31 21 -19 0 -18 -2 8
-29z"/>
<path d="M3670 1462 c0 -18 5 -32 10 -32 6 0 8 11 4 28 -10 39 -14 40 -14 4z"/>
<path d="M1836 1155 c-3 -9 -18 -15 -35 -15 -16 0 -33 -4 -36 -10 -3 -5 -24
-14 -46 -20 -58 -16 -136 -52 -122 -57 6 -2 45 6 85 18 40 12 78 23 84 25 6 1
27 9 45 17 47 21 71 27 112 29 25 1 34 5 30 15 -8 19 -109 18 -117 -2z"/>
<path d="M1424 1119 c10 -6 33 -12 50 -13 18 -2 37 -6 44 -10 8 -4 10 -2 6 7
-6 18 -36 27 -84 27 -30 -1 -32 -2 -16 -11z"/>
<path d="M2068 1093 c7 -3 16 -2 19 1 4 3 -2 6 -13 5 -11 0 -14 -3 -6 -6z"/>
<path d="M2600 923 c-8 -3 -32 -23 -52 -44 l-38 -38 0 -105 c0 -74 -4 -106
-12 -109 -7 -2 -10 -8 -5 -12 16 -18 27 15 32 99 5 93 11 108 61 149 48 41
110 50 224 34 135 -20 183 -28 191 -33 5 -3 9 1 9 9 0 15 -79 29 -170 31 -25
1 -48 6 -52 11 -8 11 -164 18 -188 8z"/>
<path d="M3020 872 c0 -10 41 -24 49 -17 6 7 0 11 -26 19 -13 4 -23 3 -23 -2z"/>
<path d="M4101 524 c0 -11 3 -14 6 -6 3 7 2 16 -1 19 -3 4 -6 -2 -5 -13z"/>
<path d="M4112 460 c0 -14 2 -19 5 -12 2 6 2 18 0 25 -3 6 -5 1 -5 -13z"/>
<path d="M3960 293 c-19 -2 -41 -11 -47 -20 -7 -9 -13 -12 -13 -6 0 7 -11 7
-35 -1 -19 -6 -35 -14 -35 -18 0 -8 26 -12 45 -8 28 6 45 10 105 24 36 9 82
16 103 16 20 0 37 5 37 10 0 10 -86 11 -160 3z"/>
</g>
</svg>
